<?xml version="1.0" encoding="utf-8"?>
<!-- Generator: Adobe Illustrator 24.3.0, SVG Export Plug-In . SVG Version: 6.00 Build 0)  -->
<svg version="1.1" id="Layer_1" xmlns="http://www.w3.org/2000/svg" xmlns:xlink="http://www.w3.org/1999/xlink" x="0px" y="0px"
	 viewBox="0 0 24 24" style="enable-background:new 0 0 24 24;" xml:space="preserve">
<style type="text/css">
	.st0{fill-rule:evenodd;clip-rule:evenodd;fill:#E6E6E6;}
</style>
<g id="Navigation-_x2A__x2A_After-Reorg-and-Future-Projects">
	<g id="NLN-Color-Theme-Future" transform="translate(-27.000000, -449.000000)">
		<g id="Section-_x2F_-Workspace" transform="translate(0.000000, 39.000000)">
			<g id="Nav-_x2F_-Level-2" transform="translate(0.000000, 400.000000)">
				<g id="_xD83C__xDF40_-Icon-_x2F_-Alert-Management" transform="translate(23.750000, 8.000000)">
					<g>
						<g id="_xD83C__xDFA8_-Icon-Color">
							<path id="path-2_1_" class="st0" d="M15.5,4c-1.1,0-2,0.9-2,2v0.3c-2.4,0.8-4,3-4,5.7v6.6l-1.7,1.7c-0.3,0.3-0.4,0.7-0.2,1.1
								C7.8,21.8,8.1,22,8.5,22h5c0,1.1,0.9,2,2,2s2-0.9,2-2h5c0.4,0,0.8-0.2,0.9-0.6s0.1-0.8-0.2-1.1l-1.7-1.7V12
								c0-2.6-1.6-4.8-4-5.7V6C17.5,4.9,16.6,4,15.5,4z M19.5,12v7c0,0.2,0.1,0.5,0.3,0.7l0.3,0.3h-9.2l0.3-0.3
								c0.2-0.2,0.3-0.5,0.3-0.7v-7c0-2.2,1.8-4,4-4S19.5,9.8,19.5,12z"/>
						</g>
					</g>
				</g>
			</g>
		</g>
	</g>
</g>
</svg>
