<?xml version="1.0" encoding="utf-8"?>
<!-- Generator: Adobe Illustrator 24.3.0, SVG Export Plug-In . SVG Version: 6.00 Build 0)  -->
<svg version="1.1" id="Layer_1" xmlns="http://www.w3.org/2000/svg" xmlns:xlink="http://www.w3.org/1999/xlink" x="0px" y="0px"
	 viewBox="0 0 24 24" style="enable-background:new 0 0 24 24;" xml:space="preserve">
<style type="text/css">
	.st0{fill:#E6E6E6;}
</style>
<g id="Mask">
	<path id="path-2_1_" class="st0" d="M21.2,5h-18c-0.5,0-1,0.4-1,1v12c0,0.5,0.5,1,1,1h18c0.5,0,1-0.5,1-1V6C22.2,5.4,21.8,5,21.2,5
		z M19.8,14c-1.4,0-2.5,1.1-2.5,2.5c0,0.1,0,0.4,0,0.5H7.1c0.1-0.1,0.1-0.4,0.1-0.5c0-1.4-1.1-2.5-2.5-2.5c-0.2,0-0.3,0-0.5,0V9.9
		C4.4,10,4.6,10,4.8,10c1.4,0,2.5-1.1,2.5-2.5c0-0.1,0-0.4-0.1-0.5h10.1c0,0.1,0,0.4,0,0.5c0,1.4,1.1,2.5,2.5,2.5
		c0.1,0,0.4,0,0.5-0.1V14C20.1,14,19.9,14,19.8,14z M15.2,12c0,1.6-1.4,3-3,3s-3-1.4-3-3s1.4-3,3-3S15.2,10.4,15.2,12z"/>
</g>
</svg>
