<?xml version="1.0" encoding="utf-8"?>
<!-- Generator: Adobe Illustrator 24.3.0, SVG Export Plug-In . SVG Version: 6.00 Build 0)  -->
<svg version="1.1" id="Layer_1" xmlns="http://www.w3.org/2000/svg" xmlns:xlink="http://www.w3.org/1999/xlink" x="0px" y="0px"
	 viewBox="0 0 24 24" style="enable-background:new 0 0 24 24;" xml:space="preserve">
<style type="text/css">
	.st0{fill:#E6E6E6;}
</style>
<g id="Mask">
	<path id="path-2_1_" class="st0" d="M17.2,17.5h-2v-2h2V17.5z M17.2,11.5h-2v2h2V11.5z M21.2,9v11c0,0.5-0.5,1-1,1h-16
		c-0.6,0-1-0.5-1-1V4c0-0.6,0.4-1,1-1h8c0.6,0,1,0.4,1,1v4h7C20.8,8,21.2,8.4,21.2,9z M7.2,17h-2v2h2V17z M7.2,13h-2v2h2V13z M7.2,9
		h-2v2h2V9z M7.2,5h-2v2h2V5z M11.2,17h-2v2h2V17z M11.2,13h-2v2h2V13z M11.2,9h-2v2h2V9z M11.2,5h-2v2h2V5z M19.2,10h-6v9h6V10z"/>
</g>
</svg>
