<?xml version="1.0" encoding="utf-8"?>
<!-- Generator: Adobe Illustrator 24.3.0, SVG Export Plug-In . SVG Version: 6.00 Build 0)  -->
<svg version="1.1" id="Layer_1" xmlns="http://www.w3.org/2000/svg" xmlns:xlink="http://www.w3.org/1999/xlink" x="0px" y="0px"
	 viewBox="0 0 24 24" style="enable-background:new 0 0 24 24;" xml:space="preserve">
<style type="text/css">
	.st0{fill:#E6E6E6;}
</style>
<g id="Mask">
	<path id="path-2_1_" class="st0" d="M12,11.5c-1.9,0-3.5-1.6-3.5-3.5s1.6-3.5,3.5-3.5s3.5,1.6,3.5,3.5S14,11.5,12,11.5z M5.8,16
		c-0.1,0.2-0.2,0.4-0.2,0.6V19c0,0.5,0.4,1,1,1h11c0.5,0,1-0.5,1-1v-2.3c0-0.2-0.1-0.5-0.2-0.7c-1.8-1.9-4-3-6.2-3S7.5,14,5.8,16z"
		/>
</g>
</svg>
