<?xml version="1.0" encoding="utf-8"?>
<!-- Generator: Adobe Illustrator 24.3.0, SVG Export Plug-In . SVG Version: 6.00 Build 0)  -->
<svg version="1.1" id="Layer_1" xmlns="http://www.w3.org/2000/svg" xmlns:xlink="http://www.w3.org/1999/xlink" x="0px" y="0px"
	 viewBox="0 0 24 24" style="enable-background:new 0 0 24 24;" xml:space="preserve">
<style type="text/css">
	.st0{fill:#E6E6E6;}
</style>
<g id="Mask">
	<path id="path-2_1_" class="st0" d="M14,15c0,1.1-0.9,2-2,2s-2-0.9-2-2c0-0.8,0.4-1.4,1.1-1.8l0.4-2.9c0.1-0.2,0.2-0.4,0.5-0.4
		s0.4,0.2,0.5,0.4l0.5,2.9C13.6,13.6,14,14.2,14,15z M22,13.5c0,2.5-0.9,4.9-2.5,6.6c-0.2,0.2-0.5,0.4-0.8,0.4H5.3
		c-0.3,0-0.6-0.1-0.8-0.4c-1.7-1.8-2.6-4.2-2.6-6.6c0-5.5,4.5-10,10-10S22,8,22,13.5z M20,13.5c0-4.4-3.6-8-8-8s-8,3.6-8,8
		c0,1.8,0.6,3.6,1.8,5h12.5C19.4,17.1,20,15.4,20,13.5z"/>
</g>
</svg>
