<?xml version="1.0" encoding="utf-8"?>
<!-- Generator: Adobe Illustrator 24.3.0, SVG Export Plug-In . SVG Version: 6.00 Build 0)  -->
<svg version="1.1" id="Layer_1" xmlns="http://www.w3.org/2000/svg" xmlns:xlink="http://www.w3.org/1999/xlink" x="0px" y="0px"
	 viewBox="0 0 24 24" style="enable-background:new 0 0 24 24;" xml:space="preserve">
<style type="text/css">
	.st0{fill:#E6E6E6;}
</style>
<g id="Mask">
	<path id="path-2_1_" class="st0" d="M21,3H3C2.5,3,2,3.4,2,4v14c0,0.5,0.5,1,1,1h8v1H9.5c-0.6,0-1,0.5-1,1s0.4,1,1,1h5
		c0.5,0,1-0.5,1-1s-0.5-1-1-1H13v-1h8l0,0c0.5,0,1-0.5,1-1V4C22,3.4,21.5,3,21,3z M20,17H4V5h16V17z"/>
</g>
</svg>
