<?xml version="1.0" encoding="utf-8"?>
<!-- Generator: Adobe Illustrator 24.3.0, SVG Export Plug-In . SVG Version: 6.00 Build 0)  -->
<svg version="1.1" id="Layer_1" xmlns="http://www.w3.org/2000/svg" xmlns:xlink="http://www.w3.org/1999/xlink" x="0px" y="0px"
	 viewBox="0 0 24 24" style="enable-background:new 0 0 24 24;" xml:space="preserve">
<style type="text/css">
	.st0{fill-rule:evenodd;clip-rule:evenodd;fill:#E6E6E6;}
</style>
<g id="Combined-Shape">
	<path id="path-2_1_" class="st0" d="M3.2,7.4L3.2,7.4h8.2c0.2,0,0.3,0.1,0.4,0.2l0,0l2.6,2.6c0.2,0.2,0.2,0.3,0.2,0.5l0,0v10.9
		c0,0.4-0.3,0.8-0.8,0.8l0,0H3.3c-0.2,0-0.4-0.1-0.5-0.2c-0.2-0.2-0.2-0.3-0.2-0.5l0,0V8.1C2.5,7.7,2.8,7.4,3.2,7.4L3.2,7.4z
		 M10.1,8.9h-6V21h9v-9h-2.3c-0.4,0-0.8-0.3-0.8-0.8l0,0V8.9H10.1z M6.2,4.4h0.1h8.1c0.2,0,0.3,0.1,0.4,0.2l0,0l2.6,2.6
		c0.2,0.2,0.2,0.3,0.2,0.5l0,0v10.9c0,0.4-0.3,0.8-0.8,0.8l0,0h-1.6v-1.5h0.9v-9h-2.3c-0.4,0-0.8-0.3-0.8-0.8l0,0V5.9H7v0.9H5.5V5.1
		c0-0.4,0.3-0.8,0.8-0.7H6.2z M10.8,17.2c0.4,0,0.8,0.3,0.8,0.8c0,0.4-0.3,0.8-0.8,0.8H6.3c-0.4,0-0.8-0.3-0.8-0.8
		c0-0.4,0.3-0.8,0.8-0.8H10.8z M9.2,1.4L9.2,1.4h8.2c0.2,0,0.3,0.1,0.4,0.2l0,0l2.6,2.6c0.2,0.2,0.2,0.3,0.2,0.5l0,0v10.9
		c0,0.4-0.3,0.8-0.8,0.8l0,0h-1.6v-1.5h0.9v-9h-2.3c-0.4,0-0.8-0.3-0.8-0.8l0,0V2.9h-6v0.9H8.5V2.1C8.5,1.7,8.9,1.3,9.2,1.4L9.2,1.4
		z M10.8,14.2c0.4,0,0.8,0.3,0.8,0.8c0,0.4-0.3,0.8-0.8,0.8H6.3c-0.4,0-0.8-0.3-0.8-0.8c0-0.4,0.3-0.8,0.8-0.8
		C6.3,14.2,10.8,14.2,10.8,14.2z"/>
</g>
</svg>
