<?xml version="1.0" encoding="utf-8"?>
<!-- Generator: Adobe Illustrator 24.3.0, SVG Export Plug-In . SVG Version: 6.00 Build 0)  -->
<svg version="1.1" id="Layer_1" xmlns="http://www.w3.org/2000/svg" xmlns:xlink="http://www.w3.org/1999/xlink" x="0px" y="0px"
	 viewBox="0 0 24 24" style="enable-background:new 0 0 24 24;" xml:space="preserve">
<style type="text/css">
	.st0{fill:#E6E6E6;}
</style>
<g id="Mask">
	<path id="path-2_1_" class="st0" d="M12.2,2c-1.1,0-2,0.9-2,2v0.3c-2.4,0.8-4,3-4,5.7v6.6l-1.7,1.7c-0.3,0.3-0.4,0.7-0.2,1.1
		C4.6,19.8,4.9,20,5.2,20h5c0,1.1,0.9,2,2,2s2-0.9,2-2h5c0.4,0,0.8-0.2,0.9-0.6s0.1-0.8-0.2-1.1l-1.7-1.7V10c0-2.6-1.6-4.8-4-5.7V4
		C14.2,2.9,13.4,2,12.2,2z M16.2,10v7c0,0.2,0.1,0.5,0.3,0.7l0.3,0.3H7.6l0.3-0.3c0.2-0.2,0.3-0.5,0.3-0.7v-7c0-2.2,1.8-4,4-4
		S16.2,7.8,16.2,10z"/>
</g>
</svg>
