<?xml version="1.0" encoding="utf-8"?>
<!-- Generator: Adobe Illustrator 24.3.0, SVG Export Plug-In . SVG Version: 6.00 Build 0)  -->
<svg version="1.1" id="Layer_1" xmlns="http://www.w3.org/2000/svg" xmlns:xlink="http://www.w3.org/1999/xlink" x="0px" y="0px"
	 viewBox="0 0 24 24" style="enable-background:new 0 0 24 24;" xml:space="preserve">
<style type="text/css">
	.st0{fill:#E6E6E6;}
</style>
<g id="Mask">
	<path id="path-2_1_" class="st0" d="M18.8,18c0,1.1-0.9,2-2,2s-2-0.9-2-2s0.9-2,2-2S18.8,16.9,18.8,18z M9.2,16c-1.1,0-2,0.9-2,2
		s0.9,2,2,2s2-0.9,2-2S10.4,16,9.2,16z M21.2,6.2l-2,8c-0.1,0.5-0.5,0.8-1,0.8H7.8c-0.4,0-0.9-0.3-0.9-0.8l-2-7.8L4.3,6H3.2
		c-0.6,0-1-0.4-1-1s0.4-1,1-1h1.5c0.3,0,0.5,0.1,0.7,0.3L6.2,5h14.1c0.3,0,0.6,0.1,0.8,0.4C21.2,5.6,21.2,5.9,21.2,6.2z M19,7H7.1
		l1.5,6h8.9L19,7z"/>
</g>
</svg>
