<?xml version="1.0" encoding="utf-8"?>
<!-- Generator: Adobe Illustrator 24.3.0, SVG Export Plug-In . SVG Version: 6.00 Build 0)  -->
<svg version="1.1" id="Layer_1" xmlns="http://www.w3.org/2000/svg" xmlns:xlink="http://www.w3.org/1999/xlink" x="0px" y="0px"
	 viewBox="0 0 24 24" style="enable-background:new 0 0 24 24;" xml:space="preserve">
<style type="text/css">
	.st0{fill:#E6E6E6;}
</style>
<g id="Mask">
	<path id="path-2_1_" class="st0" d="M20.2,21h-16c-0.6,0-1-0.5-1-1V4c0-0.6,0.4-1,1-1s1,0.4,1,1v15h15c0.5,0,1,0.5,1,1
		S20.8,21,20.2,21z M18.2,6c0-0.6-0.5-1-1-1h-9c-0.6,0-1,0.4-1,1s0.4,1,1,1h9C17.8,7,18.2,6.6,18.2,6z M20.2,9.5c0-0.6-0.5-1-1-1h-7
		c-0.6,0-1,0.4-1,1s0.4,1,1,1h7C19.8,10.5,20.2,10.1,20.2,9.5z M14.2,13c0-0.6-0.5-1-1-1h-4c-0.6,0-1,0.4-1,1c0,0.5,0.4,1,1,1h4
		C13.8,14,14.2,13.5,14.2,13z M20.2,16.5c0-0.5-0.5-1-1-1h-4c-0.5,0-1,0.5-1,1s0.5,1,1,1h4C19.8,17.5,20.2,17,20.2,16.5z"/>
</g>
</svg>
