<?xml version="1.0" encoding="utf-8"?>
<!-- Generator: Adobe Illustrator 24.3.0, SVG Export Plug-In . SVG Version: 6.00 Build 0)  -->
<svg version="1.1" id="Layer_1" xmlns="http://www.w3.org/2000/svg" xmlns:xlink="http://www.w3.org/1999/xlink" x="0px" y="0px"
	 viewBox="0 0 24 24" style="enable-background:new 0 0 24 24;" xml:space="preserve">
<style type="text/css">
	.st0{fill-rule:evenodd;clip-rule:evenodd;fill:#E6E6E6;}
</style>
<g id="Navigation-_x2A__x2A_After-Reorg-and-Future-Projects">
	<g id="NLN-Color-Theme-3-Months" transform="translate(-26.000000, -693.000000)">
		<g id="Section-_x2F_-Classic" transform="translate(0.000000, 601.500000)">
			<g id="Nav-_x2F_-Level-2" transform="translate(0.000000, 81.000000)">
				<g id="_xD83C__xDF40_-Icon-_x2F_-_x2A_-Placeholder" transform="translate(23.750000, 8.000000)">
					<g>
						<g id="_xD83C__xDFA8_-Icon-Color">
							<path id="path-2_1_" class="st0" d="M6.5,13.5h6c0.6,0,1-0.4,1-1v-6c0-0.6-0.4-1-1-1h-6c-0.6,0-1,0.4-1,1v6
								C5.5,13.1,5.9,13.5,6.5,13.5z M7.5,7.5h4v4h-4V7.5z M23.5,6.5c0-0.6-0.5-1-1-1h-6c-0.6,0-1,0.4-1,1v6c0,0.6,0.4,1,1,1h6
								c0.5,0,1-0.4,1-1V6.5z M21.5,11.5h-4v-4h4V11.5z M5.5,22.5c0,0.5,0.4,1,1,1h6c0.6,0,1-0.5,1-1v-6c0-0.6-0.4-1-1-1h-6
								c-0.6,0-1,0.4-1,1V22.5z M7.5,17.5h4v4h-4V17.5z M23.5,16.5c0-0.6-0.5-1-1-1h-6c-0.6,0-1,0.4-1,1v6c0,0.5,0.4,1,1,1h6
								c0.5,0,1-0.5,1-1V16.5z M21.5,21.5h-4v-4h4V21.5z"/>
						</g>
					</g>
				</g>
			</g>
		</g>
	</g>
</g>
</svg>
