<?xml version="1.0" encoding="utf-8"?>
<!-- Generator: Adobe Illustrator 24.3.0, SVG Export Plug-In . SVG Version: 6.00 Build 0)  -->
<svg version="1.1" id="Layer_1" xmlns="http://www.w3.org/2000/svg" xmlns:xlink="http://www.w3.org/1999/xlink" x="0px" y="0px"
	 viewBox="0 0 24 24" style="enable-background:new 0 0 24 24;" xml:space="preserve">
<style type="text/css">
	.st0{fill:#E6E6E6;}
</style>
<g id="Mask">
	<path id="path-2_1_" class="st0" d="M10.2,10v7c0,0.5-0.4,1-1,1s-1-0.5-1-1v-7c0-0.6,0.4-1,1-1S10.2,9.4,10.2,10z M12.2,11
		c-0.6,0-1,0.4-1,1v5c0,0.5,0.4,1,1,1c0.5,0,1-0.5,1-1v-5C13.2,11.4,12.8,11,12.2,11z M15.2,13.5c-0.5,0-1,0.4-1,1V17
		c0,0.5,0.5,1,1,1s1-0.5,1-1v-2.5C16.2,13.9,15.8,13.5,15.2,13.5z M20,5.8c0.2,0.2,0.3,0.4,0.3,0.7V21c0,0.5-0.5,1-1,1h-14
		c-0.2,0-0.5-0.1-0.7-0.3c-0.2-0.2-0.3-0.5-0.3-0.7V3c0-0.5,0.4-1,1-1h10.5c0.1,0,0.1,0,0.2,0c0.2,0,0.4,0.2,0.5,0.2L20,5.8z
		 M18.2,20V8h-3c-0.5,0-1-0.4-1-1V4h-8v16H18.2z"/>
</g>
</svg>
