<?xml version="1.0" encoding="utf-8"?>
<!-- Generator: Adobe Illustrator 24.3.0, SVG Export Plug-In . SVG Version: 6.00 Build 0)  -->
<svg version="1.1" id="Layer_1" xmlns="http://www.w3.org/2000/svg" xmlns:xlink="http://www.w3.org/1999/xlink" x="0px" y="0px"
	 viewBox="0 0 24 24" style="enable-background:new 0 0 24 24;" xml:space="preserve">
<style type="text/css">
	.st0{fill-rule:evenodd;clip-rule:evenodd;fill:#E6E6E6;}
</style>
<g id="Navigation-_x2A__x2A_After-Reorg-and-Future-Projects">
	<g id="NLN-Color-Theme-3-Months" transform="translate(-25.000000, -892.000000)">
		<g id="Section-_x2F_-Classic" transform="translate(0.000000, 601.500000)">
			<g id="Nav-_x2F_-Level-2" transform="translate(0.000000, 281.000000)">
				<g id="_xD83C__xDF40_-Icon-_x2F_-_x2A_-Placeholder" transform="translate(23.750000, 8.000000)">
					<g>
						<g id="_xD83C__xDFA8_-Icon-Color">
							<path id="path-2_1_" class="st0" d="M10.5,13.5c0,1.6,1.4,3,3,3s3-1.4,3-3s-1.4-3-3-3S10.5,11.9,10.5,13.5z M14.5,13.5
								c0,0.6-0.4,1-1,1s-1-0.4-1-1s0.4-1,1-1S14.5,12.9,14.5,13.5z M17,6.3c-1.1-0.6-2.2-0.8-3.5-0.8c-4.4,0-8,3.6-8,8
								c0,1.2,0.2,2.4,0.8,3.5c0.2,0.5,0,1.1-0.5,1.4c-0.2,0-0.3,0.1-0.4,0.1c-0.3,0-0.8-0.2-0.9-0.6c-0.7-1.4-1-2.8-1-4.4
								c0-5.5,4.5-10,10-10c1.6,0,3,0.3,4.4,1c0.5,0.2,0.7,0.8,0.5,1.3S17.5,6.6,17,6.3L17,6.3z M22.5,9.1c0.6,1.3,1,2.8,1,4.4
								c0,5.5-4.5,10-10,10c-1.6,0-3-0.4-4.4-1c-0.5-0.2-0.7-0.9-0.5-1.4s0.9-0.7,1.4-0.4c1.1,0.5,2.2,0.8,3.5,0.8c4.4,0,8-3.6,8-8
								c0-1.2-0.2-2.4-0.8-3.5c-0.2-0.5-0.1-1.1,0.4-1.4S22.2,8.6,22.5,9.1L22.5,9.1z"/>
						</g>
					</g>
				</g>
			</g>
		</g>
	</g>
</g>
</svg>
