<?xml version="1.0" encoding="utf-8"?>
<!-- Generator: Adobe Illustrator 24.3.0, SVG Export Plug-In . SVG Version: 6.00 Build 0)  -->
<svg version="1.1" id="Layer_1" xmlns="http://www.w3.org/2000/svg" xmlns:xlink="http://www.w3.org/1999/xlink" x="0px" y="0px"
	 viewBox="0 0 24 24" style="enable-background:new 0 0 24 24;" xml:space="preserve">
<style type="text/css">
	.st0{fill:#E6E6E6;}
</style>
<g id="Shape">
	<path id="path-2_1_" class="st0" d="M21.2,4v4c0,0.6-0.5,1-1,1s-1-0.4-1-1V6.4l-4.8,4.8c-0.4,0.4-1,0.4-1.4,0L9.8,7.9l-4.8,4.8
		C4.8,12.9,4.6,13,4.2,13s-0.5-0.1-0.7-0.3c-0.4-0.4-0.4-1,0-1.4l5.5-5.5c0.4-0.4,1-0.4,1.4,0l3.3,3.3L17.9,5h-1.6c-0.5,0-1-0.4-1-1
		s0.5-1,1-1h4c0,0,0.1,0,0.2,0c0,0,0,0,0.1,0s0.1,0,0.1,0.1c0.1,0,0.1,0,0.1,0s0,0.1,0.1,0.1s0.2,0.2,0.3,0.3l0.1,0.1c0,0,0,0,0,0.1
		c0,0,0,0,0,0.1s0,0.1,0.1,0.1C21.2,3.8,21.2,3.9,21.2,4L21.2,4z M8.2,16.2v4c0,0.4-0.4,0.8-0.8,0.8H3.9c-0.4,0-0.8-0.4-0.8-0.8v-4
		c0-0.4,0.3-0.8,0.8-0.8h3.5C7.9,15.5,8.2,15.9,8.2,16.2z M6.8,17h-2v2.5h2V17z M14.8,14.2v6c0,0.4-0.4,0.8-0.8,0.8h-3.5
		c-0.4,0-0.8-0.4-0.8-0.8v-6c0-0.4,0.4-0.8,0.8-0.8H14C14.4,13.5,14.8,13.9,14.8,14.2z M13.2,15h-2v4.5h2V15z M21.2,12.2v8
		c0,0.4-0.4,0.8-0.8,0.8H17c-0.4,0-0.8-0.4-0.8-0.8v-8c0-0.4,0.4-0.8,0.8-0.8h3.5C20.9,11.5,21.2,11.9,21.2,12.2z M19.8,13h-2v6.5h2
		V13z"/>
</g>
</svg>
