<?xml version="1.0" encoding="utf-8"?>
<!-- Generator: Adobe Illustrator 24.3.0, SVG Export Plug-In . SVG Version: 6.00 Build 0)  -->
<svg version="1.1" id="Layer_1" xmlns="http://www.w3.org/2000/svg" xmlns:xlink="http://www.w3.org/1999/xlink" x="0px" y="0px"
	 viewBox="0 0 24 24" style="enable-background:new 0 0 24 24;" xml:space="preserve">
<style type="text/css">
	.st0{fill-rule:evenodd;clip-rule:evenodd;fill:#E6E6E6;}
</style>
<g id="Navigation-_x2A__x2A_After-Reorg-and-Future-Projects">
	<g id="NLN-Color-Theme-3-Months" transform="translate(-25.000000, -773.000000)">
		<g id="Section-_x2F_-Classic" transform="translate(0.000000, 601.500000)">
			<g id="Nav-_x2F_-Level-2" transform="translate(0.000000, 161.000000)">
				<g id="_xD83C__xDF40_-Icon-_x2F_-_x2A_-Placeholder" transform="translate(23.750000, 8.000000)">
					<g>
						<g id="_xD83C__xDFA8_-Icon-Color_1_">
							<path id="path-2_2_" class="st0" d="M11.5,14.5c0-0.6,0.4-1,1-1h4c0.5,0,1,0.4,1,1s-0.5,1-1,1h-4
								C11.9,15.5,11.5,15.1,11.5,14.5z M12.5,19.5h4c0.5,0,1-0.5,1-1s-0.5-1-1-1h-4c-0.6,0-1,0.5-1,1S11.9,19.5,12.5,19.5z
								 M23.5,8.5c0,1.3-0.9,2.4-2,2.9V21v0.2c-0.1,1.2-1,2.2-2.3,2.3H19H6.5c-1.7,0-3-1.3-3-3c0-0.9,0.5-1.8,1.2-2.3
								c0.5-0.4,1.1-0.2,1.4,0.2c0.3,0.5,0.2,1.1-0.2,1.4c-0.2,0.2-0.4,0.5-0.4,0.8c0,0.5,0.4,1,1,1s1-0.4,1-1V9
								c0-1.9,1.6-3.5,3.5-3.5h9.2h0.1h0.1C22.1,5.5,23.5,6.8,23.5,8.5L23.5,8.5z M9.5,9v11.5c0,0.4-0.1,0.7-0.1,1H19
								c0.3,0,0.5-0.2,0.5-0.5v-9.5H13c-0.1,0-0.1,0-0.2-0.1h-0.1c-0.1-0.1-0.1-0.1-0.2-0.1l-0.1-0.1c0-0.1,0-0.1-0.1-0.1h-0.1
								c0-0.1-0.1-0.1-0.1-0.1s0-0.1-0.1-0.1c0-0.1,0-0.1,0-0.1v-0.1c0-0.1,0-0.1-0.1-0.2l0,0v-0.1v-0.1v-0.1v-0.1c0,0,0,0,0-0.1
								S12,9.9,12,9.9c0-0.1,0-0.1,0.1-0.2c0.2-0.2,0.3-0.5,0.3-0.9c0-0.9-0.6-1.5-1.5-1.5S9.5,8.1,9.5,9L9.5,9z M21.5,8.5
								c0-0.6-0.5-1-1-1h-0.1h-0.1h-6.1c0.2,0.4,0.4,0.9,0.4,1.5c0,0.1,0,0.4-0.1,0.5h5.8h0.1h0.1C21,9.5,21.5,9.1,21.5,8.5
								L21.5,8.5z"/>
						</g>
					</g>
				</g>
			</g>
		</g>
	</g>
</g>
</svg>
