<?xml version="1.0" encoding="utf-8"?>
<!-- Generator: Adobe Illustrator 24.3.0, SVG Export Plug-In . SVG Version: 6.00 Build 0)  -->
<svg version="1.1" id="Layer_1" xmlns="http://www.w3.org/2000/svg" xmlns:xlink="http://www.w3.org/1999/xlink" x="0px" y="0px"
	 viewBox="0 0 24 24" style="enable-background:new 0 0 24 24;" xml:space="preserve">
<style type="text/css">
	.st0{fill-rule:evenodd;clip-rule:evenodd;fill:#E6E6E6;}
</style>
<g id="Navigation-_x2A__x2A_After-Reorg-and-Future-Projects">
	<g id="NLN-Color-Theme-Future" transform="translate(-26.000000, -569.000000)">
		<g id="Section-_x2F_-Workspace" transform="translate(0.000000, 39.000000)">
			<g id="Nav-_x2F_-Level-2" transform="translate(0.000000, 520.000000)">
				<g id="_xD83C__xDF40_-Icon-_x2F_-Security" transform="translate(23.750000, 8.000000)">
					<g>
						<g id="_xD83C__xDFA8_-Icon-Color">
							<path id="path-2_1_" class="st0" d="M18.2,14.8c0.4,0.1,0.7,0.5,0.7,0.9c-0.2,1.1-0.4,2.1-0.9,3.2c-0.6,1.5-1.4,2.9-2.5,4.3
								c-0.1,0.1-0.2,0.3-0.4,0.4c-0.1,0.1-0.3,0.1-0.5,0.1s-0.3-0.1-0.4-0.1c-0.4-0.3-0.4-0.7-0.3-1c0.1-0.2,0.2-0.3,0.3-0.4
								s0.1-0.1,0.1-0.1c1.4-2,2.2-3.7,2.7-5.4c0.1-0.4,0.2-0.8,0.3-1.2C17.4,14.8,17.8,14.7,18.2,14.8L18.2,14.8L18.2,14.8z
								 M19.8,18.8c0.4,0.1,0.6,0.4,0.6,0.8v0.2c0,0.1-0.1,0.2-0.1,0.2c-0.3,1-0.8,1.9-1.5,2.9c-0.1,0.1-0.1,0.2-0.2,0.2
								c-0.1,0.1-0.2,0.1-0.4,0.2c-0.3,0.1-0.5-0.1-0.7-0.3c-0.2-0.2-0.3-0.4-0.3-0.7c0-0.1,0.1-0.2,0.1-0.3
								c0.4-0.9,0.9-1.7,1.3-2.7c0.1-0.2,0.4-0.5,0.7-0.6L19.8,18.8L19.8,18.8z M13.9,11.8c0.2,0,0.5,0.1,0.7,0.1
								c0.7,0.2,1.5,0.7,1.6,2.2v0.5c0,1.7-0.7,3.3-1.3,4.4c-0.7,1.2-1.5,2.4-2.6,3.5c-0.1,0.1-0.1,0.1-0.2,0.2
								c-0.3,0.2-0.5,0.3-0.8,0.3c-0.2,0-0.4-0.1-0.5-0.2c-0.2-0.2-0.3-0.4-0.3-0.6c0-0.4,0.2-0.6,0.3-0.7c1.8-1.8,2.9-3.6,3.4-5.7
								c0.2-0.8,0.2-1.5,0.1-2c-0.1-0.2-0.2-0.3-0.4-0.4h-0.2l0,0c-0.1,0-0.2,0-0.2,0.3c-0.1,0.3-0.1,0.5-0.1,0.8
								c-0.1,0.5-0.1,1-0.2,1.5c-0.3,1.3-1.1,2.3-1.9,3.2c-0.5,0.5-1,1-1.5,1.4c-0.2,0.2-0.4,0.3-0.6,0.5c-0.1,0.1-0.4,0.3-0.7,0.3
								c-0.2,0-0.4-0.1-0.6-0.3C8,20.8,8,20.6,8,20.4c0-0.3,0.3-0.5,0.4-0.6l0.3,0.3l0,0l-0.3-0.3c0.3-0.3,0.5-0.5,0.8-0.8
								c0.6-0.6,1.2-1.1,1.7-1.7c0.7-0.8,1.1-1.8,1.1-3c0-0.2,0-0.4,0.1-0.6c0-0.1,0-0.2,0.1-0.3C12.1,12.4,12.8,11.8,13.9,11.8z
								 M14.1,8.9c1.1,0,2.2,0.4,3.1,1c0.9,0.8,1.6,1.8,1.8,3.2c0,0.1,0.1,0.3-0.1,0.6v0.1c-0.2,0.3-0.4,0.5-0.7,0.5
								s-0.6-0.2-0.8-0.5c-0.1-0.1-0.1-0.2-0.1-0.2c-0.3-1.4-0.9-2.2-1.8-2.6c-0.5-0.2-1-0.3-1.5-0.3c-1.2,0-2.2,0.6-2.9,1.5
								c-0.3,0.4-0.4,0.9-0.4,1.4c-0.1,0.9-0.3,2-0.8,3.2c-0.5,1-1.1,1.6-1.9,2.1c0,0-0.1,0-0.2,0.1H7.6c-0.3,0-0.5-0.2-0.7-0.5
								S6.8,17.9,7,17.7c0.1-0.1,0.2-0.2,0.3-0.3c1.1-0.7,1.5-1.8,1.7-2.9c0.1-0.5,0.2-1.1,0.3-1.6c0.3-1.7,1.2-3,3-3.6
								C12.8,9,13.5,8.9,14.1,8.9z M7.7,12.8c0.4,0,0.7,0.3,0.8,0.6c0.1,0.2,0.1,0.4,0.1,0.5V14C8.5,15.3,8,16.4,7,17.3
								c-0.1,0.1-0.3,0.2-0.5,0.3H6.3l0,0c-0.4,0-0.6-0.2-0.7-0.5s-0.1-0.7,0.2-0.9L6,15.7l0,0c0.1-0.1,0.1-0.1,0.2-0.2
								C6.7,15,7,14.4,7,13.7v-0.3l0,0C7.1,13.1,7.3,12.8,7.7,12.8L7.7,12.8L7.7,12.8z M14.2,6.6c2.2,0.1,4.2,1,5.6,2.7
								c0.8,1,1.3,2.2,1.4,3.7c0.1,1,0,1.9-0.3,3c0,0.1-0.1,0.2-0.1,0.3v0.1C20.7,16.8,20.4,17,20,17c-0.2,0-0.4-0.1-0.6-0.3
								c-0.2-0.2-0.3-0.5-0.2-0.9c0-0.2,0.1-0.3,0.1-0.5v-0.1c0.1-0.4,0.2-0.8,0.2-1.2c0.2-2.3-0.8-4-2.7-5c-1-0.6-2-0.8-3.1-0.8
								c-0.6,0-1.2,0.1-1.8,0.3c-0.1,0.1-0.3,0.1-0.4,0.2c-0.2,0.1-0.3,0.2-0.5,0.2c-0.1,0-0.1,0-0.1,0.1H11l0,0
								c-0.3,0-0.6-0.2-0.7-0.4c-0.2-0.3-0.2-0.6-0.1-0.8c0.1-0.1,0.2-0.2,0.3-0.3C11.4,6.9,12.5,6.6,14.2,6.6
								C14.1,6.6,14.2,6.6,14.2,6.6z M14.3,4.2c2.7,0.1,4.7,0.7,6.3,2c1.5,1.2,2.4,2.9,2.9,5c0,0.1,0.1,0.3-0.1,0.5
								c0,0.1-0.1,0.1-0.1,0.1c-0.2,0.3-0.5,0.5-0.8,0.5s-0.5-0.2-0.7-0.4c-0.1-0.1-0.1-0.2-0.1-0.2c-0.1-0.2-0.1-0.4-0.2-0.6
								c-0.1-0.2-0.1-0.4-0.1-0.5c-0.4-1.2-1-2.2-1.8-3c-0.8-0.7-1.9-1.2-3.2-1.5c-0.7-0.2-1.4-0.3-2.1-0.3c-0.3,0-0.5,0-0.8,0.1
								h-0.2l0,0c-0.5,0-0.8-0.3-0.8-0.8c0-0.2,0.1-0.8,0.9-0.9H14.3L14.3,4.2z M8.4,9.3c0.2-0.2,0.5-0.6,1.1-0.2
								c0.1,0.1,0.1,0.1,0.2,0.1c0.2,0.2,0.4,0.5,0.1,1c-0.1,0-0.1,0.1-0.1,0.1c0,0.1-0.1,0.1-0.1,0.2c-0.1,0.1-0.1,0.3-0.2,0.4l0,0
								L9.3,11c-0.1,0.2-0.3,0.3-0.6,0.4c-0.2,0-0.5-0.1-0.6-0.2C8.1,11,8,10.8,8,10.7l0,0v-0.3C8,10,8.1,9.7,8.4,9.3L8.4,9.3
								L8.4,9.3z"/>
						</g>
					</g>
				</g>
			</g>
		</g>
	</g>
</g>
</svg>
