<?xml version="1.0" encoding="utf-8"?>
<!-- Generator: Adobe Illustrator 24.3.0, SVG Export Plug-In . SVG Version: 6.00 Build 0)  -->
<svg version="1.1" id="Layer_1" xmlns="http://www.w3.org/2000/svg" xmlns:xlink="http://www.w3.org/1999/xlink" x="0px" y="0px"
	 viewBox="0 0 24 24" style="enable-background:new 0 0 24 24;" xml:space="preserve">
<style type="text/css">
	.st0{fill:#E6E6E6;}
</style>
<g id="Mask">
	<path id="path-2_1_" class="st0" d="M22.2,6.3L22.2,6.3c0-0.1,0-0.1,0-0.2c0,0,0,0-0.1,0c0-0.1,0-0.1,0-0.1L22,5.9
		c0-0.1,0-0.1,0-0.1V5.7l-0.1-0.1c0,0,0,0,0-0.1c-1.5-1.1-3.2-1.7-5.1-1.7c-1.6,0-3.1,0.4-4.5,1.3C10.9,4.4,9.4,4,7.8,4
		C5.9,4,4.2,4.6,2.7,5.7c-0.1,0-0.1,0-0.1,0.1s0,0.1-0.1,0.1s0,0.1-0.1,0.2l0,0c0,0.1,0,0.1,0,0.2v0.1v0.1c0,0,0,0,0,0.1V19v0.1
		c0,0,0,0,0,0.1v0.1l0,0c0,0.2,0.1,0.2,0.1,0.2l0,0c0,0,0,0,0,0.1l0,0v0.1c0,0,0,0,0.1,0.1v0.1c0,0,0,0,0.1,0c0,0,0,0.1,0.1,0.1
		c0,0,0,0,0.1,0h0.1H3h0.1h0.1h0.1h0.1h0.1h0.1l0,0c0.1,0,0.1-0.1,0.2-0.1c1.1-0.9,2.5-1.4,3.9-1.4s2.8,0.5,3.9,1.3h0.1
		c0.1,0,0.1,0.1,0.1,0.1H12h0.1h0.1h0.1h0.1h0.1h0.1h0.1h0.1h0.1c0.1,0,0.1,0,0.1,0s0.1,0,0.1-0.1c0.1,0,0.1,0,0.1,0
		c1.1-0.9,2.5-1.3,3.9-1.3s2.8,0.5,3.9,1.3c0.1,0,0.1,0.1,0.2,0.1l0,0h0.4h0.2l0,0h0.1c0,0,0.1,0,0.1-0.1h0.1l0.1-0.1l0.1-0.1
		c0,0,0,0,0-0.1c0,0,0,0,0-0.1c0,0,0.1,0,0.1-0.1s0-0.1,0-0.1c0-0.1,0-0.1,0.1-0.1V19v-0.1V6.5V6.4C22.2,6.4,22.2,6.4,22.2,6.3
		L22.2,6.3z M4.2,17.3V7c1.1-0.6,2.2-1,3.5-1s2.4,0.4,3.5,1v10.2c-1.1-0.5-2.3-0.7-3.5-0.7S5.3,16.7,4.2,17.3z M13.2,17.3V7
		c1.1-0.6,2.2-1,3.5-1s2.5,0.4,3.5,1v10.2c-1.1-0.5-2.3-0.7-3.5-0.7S14.4,16.7,13.2,17.3z"/>
</g>
</svg>
