<?xml version="1.0" encoding="utf-8"?>
<!-- Generator: Adobe Illustrator 24.3.0, SVG Export Plug-In . SVG Version: 6.00 Build 0)  -->
<svg version="1.1" id="Layer_1" xmlns="http://www.w3.org/2000/svg" xmlns:xlink="http://www.w3.org/1999/xlink" x="0px" y="0px"
	 viewBox="0 0 24 24" style="enable-background:new 0 0 24 24;" xml:space="preserve">
<style type="text/css">
	.st0{fill:#E6E6E6;}
</style>
<g>
	<path class="st0" d="M2.4,21.7H17V7.1H2.4V21.7z M15.4,8.7v11.4H4V8.7H15.4z"/>
	<path class="st0" d="M9.9,18.9c0.5,0,1.1-0.1,1.6-0.3c2.1-0.9,3.1-3.3,2.3-5.5c-0.9-2.1-3.3-3.1-5.5-2.2c-0.9,0.4-1.5,0.9-1.8,1.5
		L7.7,13c0.1-0.2,0.4-0.6,1.2-0.9c1.5-0.6,3.1,0.1,3.7,1.5c0.6,1.5-0.1,3.1-1.5,3.7c-1,0.4-2.1,0.2-2.9-0.4L9.3,16l-3.5-1.2l-0.3,4
		L7,17.7C7.8,18.4,8.8,18.9,9.9,18.9z"/>
	<polygon class="st0" points="5,6 18.1,6 18.1,19.1 19.5,19.1 19.5,4.6 5,4.6 	"/>
	<polygon class="st0" points="7.5,2 7.5,3.4 20.6,3.4 20.6,16.5 22,16.5 22,2 	"/>
</g>
</svg>
