<?xml version="1.0" encoding="utf-8"?>
<!-- Generator: Adobe Illustrator 24.3.0, SVG Export Plug-In . SVG Version: 6.00 Build 0)  -->
<svg version="1.1" id="Layer_1" xmlns="http://www.w3.org/2000/svg" xmlns:xlink="http://www.w3.org/1999/xlink" x="0px" y="0px"
	 viewBox="0 0 24 24" style="enable-background:new 0 0 24 24;" xml:space="preserve">
<style type="text/css">
	.st0{fill:#E6E6E6;}
</style>
<g id="Mask">
	<path id="path-2_1_" class="st0" d="M19.2,2h-14c-0.6,0-1,0.5-1,1v18c0,0.5,0.4,1,1,1h14c0.5,0,1-0.5,1-1V3C20.2,2.5,19.8,2,19.2,2
		z M18.2,20h-12V4h2v1c0,0.6,0.4,1,1,1h6c0.5,0,1-0.4,1-1V4h2V20z M16.2,9.5c0,0.6-0.5,1-1,1h-6c-0.6,0-1-0.4-1-1s0.4-1,1-1h6
		C15.8,8.5,16.2,8.9,16.2,9.5z M16.2,13c0,0.6-0.5,1-1,1h-6c-0.6,0-1-0.4-1-1s0.4-1,1-1h6C15.8,12,16.2,12.4,16.2,13z M16.2,16.5
		c0,0.5-0.5,1-1,1h-6c-0.6,0-1-0.5-1-1s0.4-1,1-1h6C15.8,15.5,16.2,16,16.2,16.5z"/>
</g>
</svg>
