<?xml version="1.0" encoding="utf-8"?>
<!-- Generator: Adobe Illustrator 24.3.0, SVG Export Plug-In . SVG Version: 6.00 Build 0)  -->
<svg version="1.1" id="Layer_1" xmlns="http://www.w3.org/2000/svg" xmlns:xlink="http://www.w3.org/1999/xlink" x="0px" y="0px"
	 viewBox="0 0 24 24" style="enable-background:new 0 0 24 24;" xml:space="preserve">
<style type="text/css">
	.st0{fill-rule:evenodd;clip-rule:evenodd;fill:#E6E6E6;}
</style>
<g id="Navigation-_x2A__x2A_After-Reorg-and-Future-Projects">
	<g id="NLN-Color-Theme-Future" transform="translate(-25.000000, -291.000000)">
		<g id="Section-_x2F_-Workspace" transform="translate(0.000000, 39.000000)">
			<g id="Nav-_x2F_-Level-2" transform="translate(0.000000, 240.000000)">
				<g id="_xD83C__xDF40_-Icon-_x2F_-Tickets" transform="translate(23.750000, 8.000000)">
					<g>
						<g id="_xD83C__xDFA8_-Icon-Color">
							<path id="path-2_1_" class="st0" d="M4.8,17.7l7,7c0.2,0.2,0.4,0.3,0.7,0.3s0.5-0.1,0.7-0.3l9-9c0.2-0.2,0.3-0.4,0.3-0.7V8
								c0-0.6-0.5-1-1-1h-7c-0.2,0-0.5,0.1-0.7,0.3l-9,9C4.4,16.7,4.4,17.3,4.8,17.7L4.8,17.7z M14.9,9h5.6v5.6l-8,8L6.9,17L14.9,9z
								 M16.5,12c0-0.6,0.5-1,1-1s1,0.4,1,1s-0.5,1-1,1S16.5,12.6,16.5,12z"/>
						</g>
					</g>
				</g>
			</g>
		</g>
	</g>
</g>
</svg>
