<?xml version="1.0" encoding="utf-8"?>
<!-- Generator: Adobe Illustrator 24.3.0, SVG Export Plug-In . SVG Version: 6.00 Build 0)  -->
<svg version="1.1" id="Layer_1" xmlns="http://www.w3.org/2000/svg" xmlns:xlink="http://www.w3.org/1999/xlink" x="0px" y="0px"
	 viewBox="0 0 24 24" style="enable-background:new 0 0 24 24;" xml:space="preserve">
<style type="text/css">
	.st0{fill:#E6E6E6;}
</style>
<g id="Mask">
	<path id="path-2_1_" class="st0" d="M20.2,3v10c0,0.6-0.5,1-1,1s-1-0.4-1-1V4h-2v1c0,0.6-0.5,1-1,1h-6c-0.6,0-1-0.4-1-1V4h-2v16h3
		c0.6,0,1,0.5,1,1s-0.4,1-1,1h-4c-0.6,0-1-0.5-1-1V3c0-0.6,0.4-1,1-1h14C19.8,2,20.2,2.4,20.2,3z M9.2,10h6c0.5,0,1-0.4,1-1
		s-0.5-1-1-1h-6c-0.6,0-1,0.4-1,1S8.6,10,9.2,10z M9.2,13.5h6c0.5,0,1-0.4,1-1s-0.5-1-1-1h-6c-0.6,0-1,0.4-1,1S8.6,13.5,9.2,13.5z
		 M18.5,16.3l-3.3,3.3L14,18.3c-0.4-0.4-1-0.4-1.4,0s-0.4,1,0,1.4l2,2c0.2,0.2,0.5,0.3,0.7,0.3s0.5-0.1,0.7-0.3l4-4
		c0.4-0.4,0.4-1,0-1.4C19.5,15.9,19,15.9,18.5,16.3L18.5,16.3z"/>
</g>
</svg>
