<?xml version="1.0" encoding="utf-8"?>
<!-- Generator: Adobe Illustrator 24.3.0, SVG Export Plug-In . SVG Version: 6.00 Build 0)  -->
<svg version="1.1" id="Layer_1" xmlns="http://www.w3.org/2000/svg" xmlns:xlink="http://www.w3.org/1999/xlink" x="0px" y="0px"
	 viewBox="0 0 24 24" style="enable-background:new 0 0 24 24;" xml:space="preserve">
<style type="text/css">
	.st0{fill:#E6E6E6;}
</style>
<path class="st0" d="M19.3,13.9v-3.4h2.8V3.5h-6.9v2.8h-4.8L6.2,2.1L1.4,7l4.2,4.1v3.8l-3.2,6.4h7.8l-3.2-6.4v-3.8l3.4-3.4h4.8v2.8
	h2.8v3.4c-1.9,0.3-3.3,1.9-3.3,3.9c0,2.2,1.8,4,4,4s4-1.8,4-4C22.6,15.8,21.2,14.2,19.3,13.9z M4.5,19.9l1.7-3.4l1.7,3.4H4.5z
	 M6.2,9.8L3.3,7L6.2,4L9.1,7L6.2,9.8z M16.5,9.1V4.9h4.2v4.3h-1.5h-1.3H16.5z M18.6,20.4c-1.4,0-2.6-1.2-2.6-2.6s1.2-2.6,2.6-2.6
	s2.6,1.2,2.6,2.6S20.1,20.4,18.6,20.4z"/>
</svg>
