<?xml version="1.0" encoding="utf-8"?>
<!-- Generator: Adobe Illustrator 24.3.0, SVG Export Plug-In . SVG Version: 6.00 Build 0)  -->
<svg version="1.1" id="Layer_1" xmlns="http://www.w3.org/2000/svg" xmlns:xlink="http://www.w3.org/1999/xlink" x="0px" y="0px"
	 viewBox="0 0 24 24" style="enable-background:new 0 0 24 24;" xml:space="preserve">
<style type="text/css">
	.st0{fill:#E6E6E6;}
</style>
<g id="Mask">
	<path id="path-2_1_" class="st0" d="M16.4,15.9L15.2,15v-0.3v-0.3l1.1-0.9c0.4-0.3,0.5-0.9,0.2-1.4L15.2,10
		c-0.2-0.4-0.8-0.6-1.3-0.4l-1.3,0.5C12.4,10,12.2,9.9,12,9.8l-0.2-1.3c-0.1-0.5-0.5-0.9-1.1-0.9H8.1C7.5,7.6,7.1,8,7,8.5L6.8,9.9
		c-0.1,0-0.3,0.1-0.4,0.2L5.1,9.6c-0.5-0.2-1,0-1.3,0.4l-1.4,2.2c-0.3,0.4-0.2,1.1,0.2,1.3l1,0.8v0.3V15l-1.1,0.9
		c-0.4,0.3-0.6,0.9-0.2,1.4l1.4,2.2C3.9,20,4.6,20.1,5.1,20l1.3-0.5c0.2,0.1,0.4,0.2,0.5,0.3L7.1,21c0,0.5,0.5,0.9,1,0.9h2.7
		c0.5,0,1-0.4,1-0.9l0.2-1.3c0.2-0.1,0.4-0.2,0.5-0.3l1.3,0.5c0.5,0.2,1.1,0,1.3-0.4l1.4-2.2C16.9,16.8,16.8,16.2,16.4,15.9
		L16.4,15.9z M13.8,14.2c0.1,0.2,0.1,0.4,0.1,0.5s0,0.3-0.1,0.5l-0.1,0.4l1.4,1.1l-1,1.7l-1.8-0.7L12.1,18c-0.4,0.2-0.7,0.4-1,0.5
		l-0.4,0.3l-0.2,1.8h-2l-0.2-1.8L8,18.7c-0.4-0.1-0.7-0.3-1-0.6l-0.3-0.2l-1.8,0.7l-1-1.6l1.4-1.1v-0.5c-0.1-0.2-0.1-0.4-0.1-0.5
		s0-0.4,0.1-0.5L5.4,14l-1.5-1.1l1-1.6L6.7,12L7,11.8c0.4-0.2,0.7-0.4,1-0.6l0.4-0.1L8.6,9h2l0.2,1.8l0.4,0.1c0.4,0.2,0.7,0.3,1,0.6
		l0.3,0.2l1.8-0.7l1,1.6l-1.4,1.1L13.8,14.2L13.8,14.2z M9.6,11.9c-1.6,0-2.8,1.2-2.8,2.8s1.2,2.8,2.8,2.8s2.8-1.2,2.8-2.8
		S11.1,11.9,9.6,11.9z M9.6,16c-0.6,0-1.2-0.6-1.2-1.2s0.6-1.2,1.2-1.2s1.2,0.6,1.2,1.2S10.1,16,9.6,16z M21.2,6.4
		c0-0.2,0.1-0.2,0.1-0.4c0-0.1,0-0.2-0.1-0.4l0.9-0.7c0.1-0.1,0.1-0.2,0.1-0.2l-0.8-1.4c0-0.1-0.1-0.1-0.2-0.1l-1,0.4
		c-0.2-0.2-0.5-0.3-0.7-0.4l-0.1-1c0-0.1-0.1-0.2-0.2-0.2h-1.6c-0.1,0-0.2,0.1-0.2,0.2l-0.2,1c-0.2,0.1-0.5,0.2-0.7,0.4l-1.1-0.4
		c-0.1,0-0.2,0-0.2,0.1l-0.8,1.3c-0.1,0.1-0.1,0.2,0.1,0.2l0.8,0.7c0,0.1,0,0.2,0,0.4s0,0.2,0,0.4l-1,0.7c-0.1,0.1-0.1,0.1-0.1,0.2
		L15,8.6c0.1,0.1,0.2,0.1,0.2,0.1l1.1-0.4c0.2,0.1,0.4,0.3,0.7,0.4l0.2,1.1c0,0.1,0.1,0.1,0.2,0.1h1.6c0.1,0,0.2-0.1,0.2-0.1
		l0.1-1.1c0.2-0.1,0.5-0.2,0.7-0.4l1,0.4c0.1,0.1,0.2,0,0.2-0.1l0.8-1.4c0-0.1,0-0.2-0.1-0.2L21.2,6.4L21.2,6.4z M18.2,7.4
		c-0.8,0-1.5-0.6-1.5-1.4s0.7-1.4,1.5-1.4s1.5,0.6,1.5,1.4S19,7.4,18.2,7.4z"/>
</g>
</svg>
