<?xml version="1.0" encoding="utf-8"?>
<!-- Generator: Adobe Illustrator 24.3.0, SVG Export Plug-In . SVG Version: 6.00 Build 0)  -->
<svg version="1.1" id="Layer_1" xmlns="http://www.w3.org/2000/svg" xmlns:xlink="http://www.w3.org/1999/xlink" x="0px" y="0px"
	 viewBox="0 0 24 24" style="enable-background:new 0 0 24 24;" xml:space="preserve">
<style type="text/css">
	.st0{fill-rule:evenodd;clip-rule:evenodd;fill:#E6E6E6;}
</style>
<g id="Navigation-_x2A__x2A_Interactions">
	<g id="NLN-Color-Theme-Today-04_x2F_22_x2F_21" transform="translate(-28.000000, -14.000000)">
		<g id="Nav-_x2F_-Exp-Button-_x2F_-Level-2-Copy-5" transform="translate(0.250000, -0.500000)">
			<g id="_xD83C__xDF40_-Icon-_x2F_-_x2A_-Placeholder" transform="translate(23.500000, 9.000000)">
				<g>
					<g id="Combined-Shape" transform="translate(12.000000, 12.000000) rotate(-270.000000) translate(-12.000000, -12.000000) ">
						<path id="path-2_1_" class="st0" d="M17.5,0.2c0.6,0,1,0.4,1,0.9v10.7L22,7.7c0.3-0.4,0.9-0.4,1.2-0.1
							c0.4,0.3,0.4,0.8,0.1,1.2l-5.6,6.6l-6-6.6c-0.3-0.4-0.3-0.9,0.1-1.2c0.4-0.3,0.9-0.3,1.2,0.1l3.5,3.8V1.1
							C16.5,0.6,16.9,0.2,17.5,0.2z"/>
					</g>
				</g>
			</g>
		</g>
	</g>
</g>
</svg>
