<?xml version="1.0" encoding="utf-8"?>
<!-- Generator: Adobe Illustrator 24.3.0, SVG Export Plug-In . SVG Version: 6.00 Build 0)  -->
<svg version="1.1" id="Layer_1" xmlns="http://www.w3.org/2000/svg" xmlns:xlink="http://www.w3.org/1999/xlink" x="0px" y="0px"
	 viewBox="0 0 24 24" style="enable-background:new 0 0 24 24;" xml:space="preserve">
<style type="text/css">
	.st0{fill-rule:evenodd;clip-rule:evenodd;fill:#E6E6E6;}
</style>
<g id="Navigation-_x2A__x2A_After-Reorg-and-Future-Projects">
	<g id="NLN-Color-Theme-Future" transform="translate(-26.000000, -809.000000)">
		<g id="Section-_x2F_-Workspace" transform="translate(0.000000, 39.000000)">
			<g id="Nav-_x2F_-Level-2" transform="translate(0.000000, 760.000000)">
				<g id="_xD83C__xDF40_-Icon-_x2F_-BDR" transform="translate(23.750000, 8.000000)">
					<g>
						<g id="_xD83C__xDFA8_-Icon-Color_1_">
							<path id="path-2_2_" class="st0" d="M23.5,16c0-1.2-0.6-2.2-1.5-2.9v-1.6C22,7.3,18.6,4,14.5,4S7,7.3,7,11.5v1.6
								c-0.9,0.7-1.5,1.7-1.5,2.9c0,2,1.6,3.5,3.5,3.5h2c0.6,0,1-0.5,1-1v-5c0-0.6-0.4-1-1-1H9v-1C9,8.4,11.4,6,14.5,6
								S20,8.4,20,11.5v1h-2c-0.5,0-1,0.4-1,1v5c0,0.5,0.5,1,1,1h1.8c-0.4,1.1-1.5,2-2.8,2h-1.4c-0.2-0.3-0.7-0.5-1.1-0.5
								c-0.9,0-1.5,0.6-1.5,1.5s0.6,1.5,1.5,1.5c0.4,0,0.9-0.2,1.1-0.5h1.9l0,0c2.4-0.2,4.3-2.2,4.5-4.6
								C22.9,18.2,23.5,17.2,23.5,16z M10,14.5v3H9c-0.9,0-1.5-0.6-1.5-1.5s0.6-1.5,1.5-1.5H10z M19,14.5h1c0.9,0,1.5,0.6,1.5,1.5
								s-0.6,1.5-1.5,1.5h-1V14.5z"/>
						</g>
					</g>
				</g>
			</g>
		</g>
	</g>
</g>
</svg>
