<svg id="Layer_1" data-name="Layer 1" xmlns="http://www.w3.org/2000/svg" viewBox="0 0 3002 1329"><defs><style>.cls-1{fill:#f2f1f2;}.cls-2{fill:#f1f2f3;}.cls-3{fill:#fff;}.cls-4{fill:#276ace;}.cls-5{fill:#929193;}.cls-12,.cls-6,.cls-7{fill:none;stroke-miterlimit:10;}.cls-6{stroke:#e6e6e6;}.cls-7{stroke:#7d7d7d;}.cls-8{fill:#74bfa2;}.cls-9{fill:#739cd0;}.cls-10{fill:#ccc;}.cls-11{fill:#e6e6e6;}.cls-12{stroke:#ccc;}.cls-13{fill:#f3f1f3;}</style></defs><rect class="cls-1" y="90" width="3019" height="64"/><rect class="cls-2" x="40" y="253" width="576" height="1101"/><rect class="cls-3" x="652" y="254" width="799" height="1101"/><rect class="cls-4" x="36" y="30" width="305" height="29" rx="4"/><rect class="cls-5" x="40" y="113" width="58" height="19" rx="4"/><rect class="cls-5" x="382" y="36.04" width="87" height="20.92" rx="4"/><rect class="cls-5" x="142" y="113" width="96" height="19" rx="4"/><rect class="cls-6" x="54.5" y="191.5" width="686.82" height="40" rx="4"/><rect class="cls-7" x="54.5" y="270.5" width="21" height="21" rx="4"/><circle class="cls-8" cx="114.5" cy="282.5" r="7.5"/><rect class="cls-5" x="188" y="275" width="59" height="15" rx="4"/><rect class="cls-5" x="398" y="275" width="125" height="15" rx="4"/><rect class="cls-5" x="669" y="275" width="104" height="15" rx="4"/><rect class="cls-5" x="903" y="275" width="84" height="15" rx="4"/><rect class="cls-5" x="1014" y="275" width="84" height="15" rx="4"/><rect class="cls-5" x="1227" y="204" width="97" height="15" rx="4"/><rect class="cls-5" x="1358" y="204" width="87" height="15" rx="4"/><rect class="cls-5" x="1124" y="275" width="51" height="15" rx="4"/><rect class="cls-5" x="1220" y="275" width="35" height="15" rx="4"/><line class="cls-6" x1="40" y1="253" x2="1451" y2="253"/><rect class="cls-7" x="54.5" y="326.5" width="21" height="21" rx="4"/><circle class="cls-8" cx="114.5" cy="338.5" r="7.5"/><rect class="cls-9" x="188" y="331" width="131" height="15" rx="4"/><rect class="cls-9" x="1106" y="204" width="87" height="15" rx="4"/><rect class="cls-10" x="398" y="331" width="125" height="15" rx="4"/><rect class="cls-10" x="669" y="331" width="104" height="15" rx="4"/><rect class="cls-10" x="903" y="331" width="84" height="15" rx="4"/><rect class="cls-10" x="1014" y="331" width="84" height="15" rx="4"/><rect class="cls-11" x="100" y="204" width="156" height="17" rx="4"/><rect class="cls-10" x="1124" y="331" width="51" height="15" rx="4"/><rect class="cls-10" x="1220" y="331" width="35" height="15" rx="4"/><line class="cls-6" x1="40" y1="309" x2="1451" y2="309"/><rect class="cls-7" x="54.5" y="381.5" width="21" height="21" rx="4"/><circle class="cls-8" cx="114.5" cy="393.5" r="7.5"/><rect class="cls-9" x="188" y="386" width="131" height="15" rx="4"/><rect class="cls-10" x="398" y="386" width="125" height="15" rx="4"/><rect class="cls-10" x="669" y="386" width="104" height="15" rx="4"/><rect class="cls-10" x="903" y="386" width="84" height="15" rx="4"/><rect class="cls-10" x="1014" y="386" width="84" height="15" rx="4"/><rect class="cls-10" x="1124" y="386" width="51" height="15" rx="4"/><rect class="cls-10" x="1220" y="386" width="35" height="15" rx="4"/><line class="cls-6" x1="40" y1="364" x2="1451" y2="364"/><rect class="cls-7" x="54.5" y="436.5" width="21" height="21" rx="4"/><circle class="cls-8" cx="114.5" cy="448.5" r="7.5"/><rect class="cls-9" x="188" y="441" width="131" height="15" rx="4"/><rect class="cls-10" x="398" y="441" width="125" height="15" rx="4"/><rect class="cls-10" x="669" y="441" width="104" height="15" rx="4"/><rect class="cls-10" x="903" y="441" width="84" height="15" rx="4"/><rect class="cls-10" x="1014" y="441" width="84" height="15" rx="4"/><rect class="cls-10" x="1124" y="441" width="51" height="15" rx="4"/><rect class="cls-10" x="1220" y="441" width="35" height="15" rx="4"/><line class="cls-6" x1="40" y1="419" x2="1451" y2="419"/><rect class="cls-7" x="54.5" y="491.5" width="21" height="21" rx="4"/><circle class="cls-8" cx="114.5" cy="503.5" r="7.5"/><rect class="cls-9" x="188" y="496" width="131" height="15" rx="4"/><rect class="cls-10" x="398" y="496" width="125" height="15" rx="4"/><rect class="cls-10" x="669" y="496" width="104" height="15" rx="4"/><rect class="cls-10" x="903" y="496" width="84" height="15" rx="4"/><rect class="cls-10" x="1014" y="496" width="84" height="15" rx="4"/><rect class="cls-10" x="1124" y="496" width="51" height="15" rx="4"/><rect class="cls-10" x="1220" y="496" width="35" height="15" rx="4"/><line class="cls-6" x1="40" y1="474" x2="1451" y2="474"/><rect class="cls-7" x="54.5" y="546.5" width="21" height="21" rx="4"/><circle class="cls-8" cx="114.5" cy="558.5" r="7.5"/><rect class="cls-9" x="188" y="551" width="131" height="15" rx="4"/><rect class="cls-10" x="398" y="551" width="125" height="15" rx="4"/><rect class="cls-10" x="669" y="551" width="104" height="15" rx="4"/><rect class="cls-10" x="903" y="551" width="84" height="15" rx="4"/><rect class="cls-10" x="1014" y="551" width="84" height="15" rx="4"/><rect class="cls-10" x="1124" y="551" width="51" height="15" rx="4"/><rect class="cls-10" x="1220" y="551" width="35" height="15" rx="4"/><line class="cls-6" x1="40" y1="529" x2="1451" y2="529"/><rect class="cls-7" x="54.5" y="601.5" width="21" height="21" rx="4"/><circle class="cls-8" cx="114.5" cy="613.5" r="7.5"/><rect class="cls-9" x="188" y="606" width="131" height="15" rx="4"/><rect class="cls-10" x="398" y="606" width="125" height="15" rx="4"/><rect class="cls-10" x="669" y="606" width="104" height="15" rx="4"/><rect class="cls-10" x="903" y="606" width="84" height="15" rx="4"/><rect class="cls-10" x="1014" y="606" width="84" height="15" rx="4"/><rect class="cls-10" x="1124" y="606" width="51" height="15" rx="4"/><rect class="cls-10" x="1220" y="606" width="35" height="15" rx="4"/><line class="cls-6" x1="40" y1="584" x2="1451" y2="584"/><rect class="cls-7" x="54.5" y="656.5" width="21" height="21" rx="4"/><circle class="cls-8" cx="114.5" cy="668.5" r="7.5"/><rect class="cls-9" x="188" y="661" width="131" height="15" rx="4"/><rect class="cls-10" x="398" y="661" width="125" height="15" rx="4"/><rect class="cls-10" x="669" y="661" width="104" height="15" rx="4"/><rect class="cls-10" x="903" y="661" width="84" height="15" rx="4"/><rect class="cls-10" x="1014" y="661" width="84" height="15" rx="4"/><rect class="cls-10" x="1124" y="661" width="51" height="15" rx="4"/><rect class="cls-10" x="1220" y="661" width="35" height="15" rx="4"/><line class="cls-6" x1="40" y1="639" x2="1451" y2="639"/><rect class="cls-7" x="54.5" y="711.5" width="21" height="21" rx="4"/><circle class="cls-8" cx="114.5" cy="723.5" r="7.5"/><rect class="cls-9" x="188" y="716" width="131" height="15" rx="4"/><rect class="cls-10" x="398" y="716" width="125" height="15" rx="4"/><rect class="cls-10" x="669" y="716" width="104" height="15" rx="4"/><rect class="cls-10" x="903" y="716" width="84" height="15" rx="4"/><rect class="cls-10" x="1014" y="716" width="84" height="15" rx="4"/><rect class="cls-10" x="1124" y="716" width="51" height="15" rx="4"/><rect class="cls-10" x="1220" y="716" width="35" height="15" rx="4"/><line class="cls-6" x1="40" y1="694" x2="1451" y2="694"/><rect class="cls-7" x="54.5" y="766.5" width="21" height="21" rx="4"/><circle class="cls-8" cx="114.5" cy="778.5" r="7.5"/><rect class="cls-9" x="188" y="771" width="131" height="15" rx="4"/><rect class="cls-10" x="398" y="771" width="125" height="15" rx="4"/><rect class="cls-10" x="669" y="771" width="104" height="15" rx="4"/><rect class="cls-10" x="903" y="771" width="84" height="15" rx="4"/><rect class="cls-10" x="1014" y="771" width="84" height="15" rx="4"/><rect class="cls-10" x="1124" y="771" width="51" height="15" rx="4"/><rect class="cls-10" x="1220" y="771" width="35" height="15" rx="4"/><line class="cls-6" x1="40" y1="749" x2="1451" y2="749"/><rect class="cls-7" x="54.5" y="821.5" width="21" height="21" rx="4"/><circle class="cls-8" cx="114.5" cy="833.5" r="7.5"/><rect class="cls-9" x="188" y="826" width="131" height="15" rx="4"/><rect class="cls-10" x="398" y="826" width="125" height="15" rx="4"/><rect class="cls-10" x="669" y="826" width="104" height="15" rx="4"/><rect class="cls-10" x="903" y="826" width="84" height="15" rx="4"/><rect class="cls-10" x="1014" y="826" width="84" height="15" rx="4"/><rect class="cls-10" x="1124" y="826" width="51" height="15" rx="4"/><rect class="cls-10" x="1220" y="826" width="35" height="15" rx="4"/><line class="cls-6" x1="40" y1="804" x2="1451" y2="804"/><rect class="cls-7" x="54.5" y="876.5" width="21" height="21" rx="4"/><circle class="cls-8" cx="114.5" cy="888.5" r="7.5"/><rect class="cls-9" x="188" y="881" width="131" height="15" rx="4"/><rect class="cls-10" x="398" y="881" width="125" height="15" rx="4"/><rect class="cls-10" x="669" y="881" width="104" height="15" rx="4"/><rect class="cls-10" x="903" y="881" width="84" height="15" rx="4"/><rect class="cls-10" x="1014" y="881" width="84" height="15" rx="4"/><rect class="cls-10" x="1124" y="881" width="51" height="15" rx="4"/><rect class="cls-10" x="1220" y="881" width="35" height="15" rx="4"/><line class="cls-6" x1="40" y1="859" x2="1451" y2="859"/><rect class="cls-7" x="54.5" y="931.5" width="21" height="21" rx="4"/><circle class="cls-8" cx="114.5" cy="943.5" r="7.5"/><rect class="cls-9" x="188" y="936" width="131" height="15" rx="4"/><rect class="cls-10" x="398" y="936" width="125" height="15" rx="4"/><rect class="cls-10" x="669" y="936" width="104" height="15" rx="4"/><rect class="cls-10" x="903" y="936" width="84" height="15" rx="4"/><rect class="cls-10" x="1014" y="936" width="84" height="15" rx="4"/><rect class="cls-10" x="1124" y="936" width="51" height="15" rx="4"/><rect class="cls-10" x="1220" y="936" width="35" height="15" rx="4"/><line class="cls-6" x1="40" y1="914" x2="1451" y2="914"/><rect class="cls-7" x="54.5" y="986.5" width="21" height="21" rx="4"/><circle class="cls-8" cx="114.5" cy="998.5" r="7.5"/><rect class="cls-9" x="188" y="991" width="131" height="15" rx="4"/><rect class="cls-10" x="398" y="991" width="125" height="15" rx="4"/><rect class="cls-10" x="669" y="991" width="104" height="15" rx="4"/><rect class="cls-10" x="903" y="991" width="84" height="15" rx="4"/><rect class="cls-10" x="1014" y="991" width="84" height="15" rx="4"/><rect class="cls-10" x="1124" y="991" width="51" height="15" rx="4"/><rect class="cls-10" x="1220" y="991" width="35" height="15" rx="4"/><line class="cls-6" x1="40" y1="969" x2="1451" y2="969"/><rect class="cls-7" x="54.5" y="1041.5" width="21" height="21" rx="4"/><circle class="cls-8" cx="114.5" cy="1053.5" r="7.5"/><rect class="cls-9" x="188" y="1046" width="131" height="15" rx="4"/><rect class="cls-10" x="398" y="1046" width="125" height="15" rx="4"/><rect class="cls-10" x="669" y="1046" width="104" height="15" rx="4"/><rect class="cls-10" x="903" y="1046" width="84" height="15" rx="4"/><rect class="cls-10" x="1014" y="1046" width="84" height="15" rx="4"/><rect class="cls-10" x="1124" y="1046" width="51" height="15" rx="4"/><rect class="cls-10" x="1220" y="1046" width="35" height="15" rx="4"/><line class="cls-6" x1="40" y1="1024" x2="1451" y2="1024"/><rect class="cls-7" x="54.5" y="1096.5" width="21" height="21" rx="4"/><circle class="cls-8" cx="114.5" cy="1108.5" r="7.5"/><rect class="cls-9" x="188" y="1101" width="131" height="15" rx="4"/><rect class="cls-10" x="398" y="1101" width="125" height="15" rx="4"/><rect class="cls-10" x="669" y="1101" width="104" height="15" rx="4"/><rect class="cls-10" x="903" y="1101" width="84" height="15" rx="4"/><rect class="cls-10" x="1014" y="1101" width="84" height="15" rx="4"/><rect class="cls-10" x="1124" y="1101" width="51" height="15" rx="4"/><rect class="cls-10" x="1220" y="1101" width="35" height="15" rx="4"/><line class="cls-6" x1="40" y1="1079" x2="1451" y2="1079"/><rect class="cls-7" x="54.5" y="1151.5" width="21" height="21" rx="4"/><circle class="cls-8" cx="114.5" cy="1163.5" r="7.5"/><rect class="cls-9" x="188" y="1156" width="131" height="15" rx="4"/><rect class="cls-10" x="398" y="1156" width="125" height="15" rx="4"/><rect class="cls-10" x="669" y="1156" width="104" height="15" rx="4"/><rect class="cls-10" x="903" y="1156" width="84" height="15" rx="4"/><rect class="cls-10" x="1014" y="1156" width="84" height="15" rx="4"/><rect class="cls-10" x="1124" y="1156" width="51" height="15" rx="4"/><rect class="cls-10" x="1220" y="1156" width="35" height="15" rx="4"/><line class="cls-6" x1="40" y1="1134" x2="1451" y2="1134"/><rect class="cls-7" x="54.5" y="1206.5" width="21" height="21" rx="4"/><circle class="cls-8" cx="114.5" cy="1218.5" r="7.5"/><rect class="cls-9" x="188" y="1211" width="131" height="15" rx="4"/><rect class="cls-10" x="398" y="1211" width="125" height="15" rx="4"/><rect class="cls-10" x="669" y="1211" width="104" height="15" rx="4"/><rect class="cls-10" x="903" y="1211" width="84" height="15" rx="4"/><rect class="cls-10" x="1014" y="1211" width="84" height="15" rx="4"/><rect class="cls-10" x="1124" y="1211" width="51" height="15" rx="4"/><rect class="cls-10" x="1220" y="1211" width="35" height="15" rx="4"/><line class="cls-6" x1="40" y1="1189" x2="1451" y2="1189"/><rect class="cls-7" x="54.5" y="1261.5" width="21" height="21" rx="4"/><circle class="cls-8" cx="114.5" cy="1273.5" r="7.5"/><rect class="cls-9" x="188" y="1266" width="131" height="15" rx="4"/><rect class="cls-10" x="398" y="1266" width="125" height="15" rx="4"/><rect class="cls-10" x="669" y="1266" width="104" height="15" rx="4"/><rect class="cls-10" x="903" y="1266" width="84" height="15" rx="4"/><rect class="cls-10" x="1014" y="1266" width="84" height="15" rx="4"/><rect class="cls-10" x="1124" y="1266" width="51" height="15" rx="4"/><rect class="cls-10" x="1220" y="1266" width="35" height="15" rx="4"/><line class="cls-6" x1="40" y1="1244" x2="1451" y2="1244"/><rect class="cls-7" x="54.5" y="1316.5" width="21" height="21" rx="4"/><circle class="cls-8" cx="114.5" cy="1328.5" r="7.5"/><rect class="cls-9" x="188" y="1321" width="131" height="15" rx="4"/><rect class="cls-10" x="398" y="1321" width="125" height="15" rx="4"/><rect class="cls-10" x="669" y="1321" width="104" height="15" rx="4"/><rect class="cls-10" x="903" y="1321" width="84" height="15" rx="4"/><rect class="cls-10" x="1014" y="1321" width="84" height="15" rx="4"/><rect class="cls-10" x="1124" y="1321" width="51" height="15" rx="4"/><rect class="cls-10" x="1220" y="1321" width="35" height="15" rx="4"/><line class="cls-6" x1="40" y1="1299" x2="1451" y2="1299"/><rect class="cls-3" x="1281" y="255" width="799" height="1101"/><rect class="cls-5" x="1298" y="276" width="104" height="15" rx="4"/><rect class="cls-5" x="1532" y="276" width="84" height="15" rx="4"/><rect class="cls-5" x="1643" y="276" width="84" height="15" rx="4"/><rect class="cls-5" x="1753" y="276" width="51" height="15" rx="4"/><rect class="cls-5" x="1849" y="276" width="35" height="15" rx="4"/><line class="cls-6" x1="669" y1="254" x2="2080" y2="254"/><rect class="cls-10" x="1298" y="332" width="104" height="15" rx="4"/><rect class="cls-10" x="1532" y="332" width="84" height="15" rx="4"/><rect class="cls-10" x="1643" y="332" width="84" height="15" rx="4"/><rect class="cls-10" x="1753" y="332" width="51" height="15" rx="4"/><rect class="cls-10" x="1849" y="332" width="35" height="15" rx="4"/><line class="cls-6" x1="669" y1="310" x2="2080" y2="310"/><rect class="cls-10" x="1298" y="387" width="104" height="15" rx="4"/><rect class="cls-10" x="1532" y="387" width="84" height="15" rx="4"/><rect class="cls-10" x="1643" y="387" width="84" height="15" rx="4"/><rect class="cls-10" x="1753" y="387" width="51" height="15" rx="4"/><rect class="cls-10" x="1849" y="387" width="35" height="15" rx="4"/><line class="cls-6" x1="669" y1="365" x2="2080" y2="365"/><rect class="cls-10" x="1298" y="442" width="104" height="15" rx="4"/><rect class="cls-10" x="1532" y="442" width="84" height="15" rx="4"/><rect class="cls-10" x="1643" y="442" width="84" height="15" rx="4"/><rect class="cls-10" x="1753" y="442" width="51" height="15" rx="4"/><rect class="cls-10" x="1849" y="442" width="35" height="15" rx="4"/><line class="cls-6" x1="669" y1="420" x2="2080" y2="420"/><rect class="cls-10" x="1298" y="497" width="104" height="15" rx="4"/><rect class="cls-10" x="1532" y="497" width="84" height="15" rx="4"/><rect class="cls-10" x="1643" y="497" width="84" height="15" rx="4"/><rect class="cls-10" x="1753" y="497" width="51" height="15" rx="4"/><rect class="cls-10" x="1849" y="497" width="35" height="15" rx="4"/><line class="cls-6" x1="669" y1="475" x2="2080" y2="475"/><rect class="cls-10" x="1298" y="552" width="104" height="15" rx="4"/><rect class="cls-10" x="1532" y="552" width="84" height="15" rx="4"/><rect class="cls-10" x="1643" y="552" width="84" height="15" rx="4"/><rect class="cls-10" x="1753" y="552" width="51" height="15" rx="4"/><rect class="cls-10" x="1849" y="552" width="35" height="15" rx="4"/><line class="cls-6" x1="669" y1="530" x2="2080" y2="530"/><rect class="cls-10" x="1298" y="607" width="104" height="15" rx="4"/><rect class="cls-10" x="1532" y="607" width="84" height="15" rx="4"/><rect class="cls-10" x="1643" y="607" width="84" height="15" rx="4"/><rect class="cls-10" x="1753" y="607" width="51" height="15" rx="4"/><rect class="cls-10" x="1849" y="607" width="35" height="15" rx="4"/><line class="cls-6" x1="669" y1="585" x2="2080" y2="585"/><rect class="cls-10" x="1298" y="662" width="104" height="15" rx="4"/><rect class="cls-10" x="1532" y="662" width="84" height="15" rx="4"/><rect class="cls-10" x="1643" y="662" width="84" height="15" rx="4"/><rect class="cls-10" x="1753" y="662" width="51" height="15" rx="4"/><rect class="cls-10" x="1849" y="662" width="35" height="15" rx="4"/><line class="cls-6" x1="669" y1="640" x2="2080" y2="640"/><rect class="cls-10" x="1298" y="717" width="104" height="15" rx="4"/><rect class="cls-10" x="1532" y="717" width="84" height="15" rx="4"/><rect class="cls-10" x="1643" y="717" width="84" height="15" rx="4"/><rect class="cls-10" x="1753" y="717" width="51" height="15" rx="4"/><rect class="cls-10" x="1849" y="717" width="35" height="15" rx="4"/><line class="cls-6" x1="669" y1="695" x2="2080" y2="695"/><rect class="cls-10" x="1298" y="772" width="104" height="15" rx="4"/><rect class="cls-10" x="1532" y="772" width="84" height="15" rx="4"/><rect class="cls-10" x="1643" y="772" width="84" height="15" rx="4"/><rect class="cls-10" x="1753" y="772" width="51" height="15" rx="4"/><rect class="cls-10" x="1849" y="772" width="35" height="15" rx="4"/><line class="cls-6" x1="669" y1="750" x2="2080" y2="750"/><rect class="cls-10" x="1298" y="827" width="104" height="15" rx="4"/><rect class="cls-10" x="1532" y="827" width="84" height="15" rx="4"/><rect class="cls-10" x="1643" y="827" width="84" height="15" rx="4"/><rect class="cls-10" x="1753" y="827" width="51" height="15" rx="4"/><rect class="cls-10" x="1849" y="827" width="35" height="15" rx="4"/><line class="cls-6" x1="669" y1="805" x2="2080" y2="805"/><rect class="cls-10" x="1298" y="882" width="104" height="15" rx="4"/><rect class="cls-10" x="1532" y="882" width="84" height="15" rx="4"/><rect class="cls-10" x="1643" y="882" width="84" height="15" rx="4"/><rect class="cls-10" x="1753" y="882" width="51" height="15" rx="4"/><rect class="cls-10" x="1849" y="882" width="35" height="15" rx="4"/><line class="cls-6" x1="669" y1="860" x2="2080" y2="860"/><rect class="cls-10" x="1298" y="937" width="104" height="15" rx="4"/><rect class="cls-10" x="1532" y="937" width="84" height="15" rx="4"/><rect class="cls-10" x="1643" y="937" width="84" height="15" rx="4"/><rect class="cls-10" x="1753" y="937" width="51" height="15" rx="4"/><rect class="cls-10" x="1849" y="937" width="35" height="15" rx="4"/><line class="cls-6" x1="669" y1="915" x2="2080" y2="915"/><rect class="cls-10" x="1298" y="992" width="104" height="15" rx="4"/><rect class="cls-10" x="1532" y="992" width="84" height="15" rx="4"/><rect class="cls-10" x="1643" y="992" width="84" height="15" rx="4"/><rect class="cls-10" x="1753" y="992" width="51" height="15" rx="4"/><rect class="cls-10" x="1849" y="992" width="35" height="15" rx="4"/><line class="cls-6" x1="669" y1="970" x2="2080" y2="970"/><rect class="cls-10" x="1298" y="1047" width="104" height="15" rx="4"/><rect class="cls-10" x="1532" y="1047" width="84" height="15" rx="4"/><rect class="cls-10" x="1643" y="1047" width="84" height="15" rx="4"/><rect class="cls-10" x="1753" y="1047" width="51" height="15" rx="4"/><rect class="cls-10" x="1849" y="1047" width="35" height="15" rx="4"/><line class="cls-6" x1="669" y1="1025" x2="2080" y2="1025"/><rect class="cls-10" x="1298" y="1102" width="104" height="15" rx="4"/><rect class="cls-10" x="1532" y="1102" width="84" height="15" rx="4"/><rect class="cls-10" x="1643" y="1102" width="84" height="15" rx="4"/><rect class="cls-10" x="1753" y="1102" width="51" height="15" rx="4"/><rect class="cls-10" x="1849" y="1102" width="35" height="15" rx="4"/><line class="cls-6" x1="669" y1="1080" x2="2080" y2="1080"/><rect class="cls-10" x="1298" y="1157" width="104" height="15" rx="4"/><rect class="cls-10" x="1532" y="1157" width="84" height="15" rx="4"/><rect class="cls-10" x="1643" y="1157" width="84" height="15" rx="4"/><rect class="cls-10" x="1753" y="1157" width="51" height="15" rx="4"/><rect class="cls-10" x="1849" y="1157" width="35" height="15" rx="4"/><line class="cls-6" x1="669" y1="1135" x2="2080" y2="1135"/><rect class="cls-10" x="1298" y="1212" width="104" height="15" rx="4"/><rect class="cls-10" x="1532" y="1212" width="84" height="15" rx="4"/><rect class="cls-10" x="1643" y="1212" width="84" height="15" rx="4"/><rect class="cls-10" x="1753" y="1212" width="51" height="15" rx="4"/><rect class="cls-10" x="1849" y="1212" width="35" height="15" rx="4"/><line class="cls-6" x1="669" y1="1190" x2="2080" y2="1190"/><rect class="cls-10" x="1298" y="1267" width="104" height="15" rx="4"/><rect class="cls-10" x="1532" y="1267" width="84" height="15" rx="4"/><rect class="cls-10" x="1643" y="1267" width="84" height="15" rx="4"/><rect class="cls-10" x="1753" y="1267" width="51" height="15" rx="4"/><rect class="cls-10" x="1849" y="1267" width="35" height="15" rx="4"/><line class="cls-6" x1="669" y1="1245" x2="2080" y2="1245"/><rect class="cls-10" x="1298" y="1322" width="104" height="15" rx="4"/><rect class="cls-10" x="1532" y="1322" width="84" height="15" rx="4"/><rect class="cls-10" x="1643" y="1322" width="84" height="15" rx="4"/><rect class="cls-10" x="1753" y="1322" width="51" height="15" rx="4"/><rect class="cls-10" x="1849" y="1322" width="35" height="15" rx="4"/><line class="cls-6" x1="669" y1="1300" x2="2080" y2="1300"/><rect class="cls-3" x="1910" y="256" width="799" height="1101"/><rect class="cls-5" x="1927" y="277" width="104" height="15" rx="4"/><rect class="cls-5" x="2161" y="277" width="84" height="15" rx="4"/><rect class="cls-5" x="2272" y="277" width="84" height="15" rx="4"/><rect class="cls-5" x="2382" y="277" width="51" height="15" rx="4"/><rect class="cls-5" x="2478" y="277" width="35" height="15" rx="4"/><line class="cls-6" x1="1298" y1="255" x2="2709" y2="255"/><rect class="cls-10" x="1927" y="333" width="104" height="15" rx="4"/><rect class="cls-10" x="2161" y="333" width="84" height="15" rx="4"/><rect class="cls-10" x="2272" y="333" width="84" height="15" rx="4"/><rect class="cls-10" x="2382" y="333" width="51" height="15" rx="4"/><rect class="cls-10" x="2478" y="333" width="35" height="15" rx="4"/><line class="cls-6" x1="1298" y1="311" x2="2709" y2="311"/><rect class="cls-10" x="1927" y="388" width="104" height="15" rx="4"/><rect class="cls-10" x="2161" y="388" width="84" height="15" rx="4"/><rect class="cls-10" x="2272" y="388" width="84" height="15" rx="4"/><rect class="cls-10" x="2382" y="388" width="51" height="15" rx="4"/><rect class="cls-10" x="2478" y="388" width="35" height="15" rx="4"/><line class="cls-6" x1="1298" y1="366" x2="2709" y2="366"/><rect class="cls-10" x="1927" y="443" width="104" height="15" rx="4"/><rect class="cls-10" x="2161" y="443" width="84" height="15" rx="4"/><rect class="cls-10" x="2272" y="443" width="84" height="15" rx="4"/><rect class="cls-10" x="2382" y="443" width="51" height="15" rx="4"/><rect class="cls-10" x="2478" y="443" width="35" height="15" rx="4"/><line class="cls-6" x1="1298" y1="421" x2="2709" y2="421"/><rect class="cls-10" x="1927" y="498" width="104" height="15" rx="4"/><rect class="cls-10" x="2161" y="498" width="84" height="15" rx="4"/><rect class="cls-10" x="2272" y="498" width="84" height="15" rx="4"/><rect class="cls-10" x="2382" y="498" width="51" height="15" rx="4"/><rect class="cls-10" x="2478" y="498" width="35" height="15" rx="4"/><line class="cls-6" x1="1298" y1="476" x2="2709" y2="476"/><rect class="cls-10" x="1927" y="553" width="104" height="15" rx="4"/><rect class="cls-10" x="2161" y="553" width="84" height="15" rx="4"/><rect class="cls-10" x="2272" y="553" width="84" height="15" rx="4"/><rect class="cls-10" x="2382" y="553" width="51" height="15" rx="4"/><rect class="cls-10" x="2478" y="553" width="35" height="15" rx="4"/><line class="cls-6" x1="1298" y1="531" x2="2709" y2="531"/><rect class="cls-10" x="1927" y="608" width="104" height="15" rx="4"/><rect class="cls-10" x="2161" y="608" width="84" height="15" rx="4"/><rect class="cls-10" x="2272" y="608" width="84" height="15" rx="4"/><rect class="cls-10" x="2382" y="608" width="51" height="15" rx="4"/><rect class="cls-10" x="2478" y="608" width="35" height="15" rx="4"/><line class="cls-6" x1="1298" y1="586" x2="2709" y2="586"/><rect class="cls-10" x="1927" y="663" width="104" height="15" rx="4"/><rect class="cls-10" x="2161" y="663" width="84" height="15" rx="4"/><rect class="cls-10" x="2272" y="663" width="84" height="15" rx="4"/><rect class="cls-10" x="2382" y="663" width="51" height="15" rx="4"/><rect class="cls-10" x="2478" y="663" width="35" height="15" rx="4"/><line class="cls-6" x1="1298" y1="641" x2="2709" y2="641"/><rect class="cls-10" x="1927" y="718" width="104" height="15" rx="4"/><rect class="cls-10" x="2161" y="718" width="84" height="15" rx="4"/><rect class="cls-10" x="2272" y="718" width="84" height="15" rx="4"/><rect class="cls-10" x="2382" y="718" width="51" height="15" rx="4"/><rect class="cls-10" x="2478" y="718" width="35" height="15" rx="4"/><line class="cls-6" x1="1298" y1="696" x2="2709" y2="696"/><rect class="cls-10" x="1927" y="773" width="104" height="15" rx="4"/><rect class="cls-10" x="2161" y="773" width="84" height="15" rx="4"/><rect class="cls-10" x="2272" y="773" width="84" height="15" rx="4"/><rect class="cls-10" x="2382" y="773" width="51" height="15" rx="4"/><rect class="cls-10" x="2478" y="773" width="35" height="15" rx="4"/><line class="cls-6" x1="1298" y1="751" x2="2709" y2="751"/><rect class="cls-10" x="1927" y="828" width="104" height="15" rx="4"/><rect class="cls-10" x="2161" y="828" width="84" height="15" rx="4"/><rect class="cls-10" x="2272" y="828" width="84" height="15" rx="4"/><rect class="cls-10" x="2382" y="828" width="51" height="15" rx="4"/><rect class="cls-10" x="2478" y="828" width="35" height="15" rx="4"/><line class="cls-6" x1="1298" y1="806" x2="2709" y2="806"/><rect class="cls-10" x="1927" y="883" width="104" height="15" rx="4"/><rect class="cls-10" x="2161" y="883" width="84" height="15" rx="4"/><rect class="cls-10" x="2272" y="883" width="84" height="15" rx="4"/><rect class="cls-10" x="2382" y="883" width="51" height="15" rx="4"/><rect class="cls-10" x="2478" y="883" width="35" height="15" rx="4"/><line class="cls-6" x1="1298" y1="861" x2="2709" y2="861"/><rect class="cls-10" x="1927" y="938" width="104" height="15" rx="4"/><rect class="cls-10" x="2161" y="938" width="84" height="15" rx="4"/><rect class="cls-10" x="2272" y="938" width="84" height="15" rx="4"/><rect class="cls-10" x="2382" y="938" width="51" height="15" rx="4"/><rect class="cls-10" x="2478" y="938" width="35" height="15" rx="4"/><line class="cls-6" x1="1298" y1="916" x2="2709" y2="916"/><rect class="cls-10" x="1927" y="993" width="104" height="15" rx="4"/><rect class="cls-10" x="2161" y="993" width="84" height="15" rx="4"/><rect class="cls-10" x="2272" y="993" width="84" height="15" rx="4"/><rect class="cls-10" x="2382" y="993" width="51" height="15" rx="4"/><rect class="cls-10" x="2478" y="993" width="35" height="15" rx="4"/><line class="cls-6" x1="1298" y1="971" x2="2709" y2="971"/><rect class="cls-10" x="1927" y="1048" width="104" height="15" rx="4"/><rect class="cls-10" x="2161" y="1048" width="84" height="15" rx="4"/><rect class="cls-10" x="2272" y="1048" width="84" height="15" rx="4"/><rect class="cls-10" x="2382" y="1048" width="51" height="15" rx="4"/><rect class="cls-10" x="2478" y="1048" width="35" height="15" rx="4"/><line class="cls-6" x1="1298" y1="1026" x2="2709" y2="1026"/><rect class="cls-10" x="1927" y="1103" width="104" height="15" rx="4"/><rect class="cls-10" x="2161" y="1103" width="84" height="15" rx="4"/><rect class="cls-10" x="2272" y="1103" width="84" height="15" rx="4"/><rect class="cls-10" x="2382" y="1103" width="51" height="15" rx="4"/><rect class="cls-10" x="2478" y="1103" width="35" height="15" rx="4"/><line class="cls-6" x1="1298" y1="1081" x2="2709" y2="1081"/><rect class="cls-10" x="1927" y="1158" width="104" height="15" rx="4"/><rect class="cls-10" x="2161" y="1158" width="84" height="15" rx="4"/><rect class="cls-10" x="2272" y="1158" width="84" height="15" rx="4"/><rect class="cls-10" x="2382" y="1158" width="51" height="15" rx="4"/><rect class="cls-10" x="2478" y="1158" width="35" height="15" rx="4"/><line class="cls-6" x1="1298" y1="1136" x2="2709" y2="1136"/><rect class="cls-10" x="1927" y="1213" width="104" height="15" rx="4"/><rect class="cls-10" x="2161" y="1213" width="84" height="15" rx="4"/><rect class="cls-10" x="2272" y="1213" width="84" height="15" rx="4"/><rect class="cls-10" x="2382" y="1213" width="51" height="15" rx="4"/><rect class="cls-10" x="2478" y="1213" width="35" height="15" rx="4"/><line class="cls-6" x1="1298" y1="1191" x2="2709" y2="1191"/><rect class="cls-10" x="1927" y="1268" width="104" height="15" rx="4"/><rect class="cls-10" x="2161" y="1268" width="84" height="15" rx="4"/><rect class="cls-10" x="2272" y="1268" width="84" height="15" rx="4"/><rect class="cls-10" x="2382" y="1268" width="51" height="15" rx="4"/><rect class="cls-10" x="2478" y="1268" width="35" height="15" rx="4"/><line class="cls-6" x1="1298" y1="1246" x2="2709" y2="1246"/><rect class="cls-10" x="1927" y="1323" width="104" height="15" rx="4"/><rect class="cls-10" x="2161" y="1323" width="84" height="15" rx="4"/><rect class="cls-10" x="2272" y="1323" width="84" height="15" rx="4"/><rect class="cls-10" x="2382" y="1323" width="51" height="15" rx="4"/><rect class="cls-10" x="2478" y="1323" width="35" height="15" rx="4"/><line class="cls-6" x1="1298" y1="1301" x2="2709" y2="1301"/><rect class="cls-3" x="2539" y="257" width="799" height="1101"/><rect class="cls-5" x="2556" y="278" width="104" height="15" rx="4"/><rect class="cls-5" x="2790" y="278" width="84" height="15" rx="4"/><rect class="cls-5" x="2901" y="278" width="84" height="15" rx="4"/><line class="cls-6" x1="1927" y1="256" x2="3338" y2="256"/><rect class="cls-10" x="2556" y="334" width="104" height="15" rx="4"/><rect class="cls-10" x="2790" y="334" width="84" height="15" rx="4"/><rect class="cls-10" x="2901" y="334" width="84" height="15" rx="4"/><line class="cls-6" x1="1927" y1="312" x2="3338" y2="312"/><rect class="cls-10" x="2556" y="389" width="104" height="15" rx="4"/><rect class="cls-10" x="2790" y="389" width="84" height="15" rx="4"/><rect class="cls-10" x="2901" y="389" width="84" height="15" rx="4"/><line class="cls-6" x1="1927" y1="367" x2="3338" y2="367"/><rect class="cls-10" x="2556" y="444" width="104" height="15" rx="4"/><rect class="cls-10" x="2790" y="444" width="84" height="15" rx="4"/><rect class="cls-10" x="2901" y="444" width="84" height="15" rx="4"/><line class="cls-6" x1="1927" y1="422" x2="3338" y2="422"/><rect class="cls-10" x="2556" y="499" width="104" height="15" rx="4"/><rect class="cls-10" x="2790" y="499" width="84" height="15" rx="4"/><rect class="cls-10" x="2901" y="499" width="84" height="15" rx="4"/><line class="cls-6" x1="1927" y1="477" x2="3338" y2="477"/><rect class="cls-10" x="2556" y="554" width="104" height="15" rx="4"/><rect class="cls-10" x="2790" y="554" width="84" height="15" rx="4"/><rect class="cls-10" x="2901" y="554" width="84" height="15" rx="4"/><line class="cls-6" x1="1927" y1="532" x2="3338" y2="532"/><rect class="cls-10" x="2556" y="609" width="104" height="15" rx="4"/><rect class="cls-10" x="2790" y="609" width="84" height="15" rx="4"/><rect class="cls-10" x="2901" y="609" width="84" height="15" rx="4"/><line class="cls-6" x1="1927" y1="587" x2="3338" y2="587"/><rect class="cls-10" x="2556" y="664" width="104" height="15" rx="4"/><rect class="cls-10" x="2790" y="664" width="84" height="15" rx="4"/><rect class="cls-10" x="2901" y="664" width="84" height="15" rx="4"/><line class="cls-6" x1="1927" y1="642" x2="3338" y2="642"/><rect class="cls-10" x="2556" y="719" width="104" height="15" rx="4"/><rect class="cls-10" x="2790" y="719" width="84" height="15" rx="4"/><rect class="cls-10" x="2901" y="719" width="84" height="15" rx="4"/><line class="cls-6" x1="1927" y1="697" x2="3338" y2="697"/><rect class="cls-10" x="2556" y="774" width="104" height="15" rx="4"/><rect class="cls-10" x="2790" y="774" width="84" height="15" rx="4"/><rect class="cls-10" x="2901" y="774" width="84" height="15" rx="4"/><line class="cls-6" x1="1927" y1="752" x2="3338" y2="752"/><rect class="cls-10" x="2556" y="829" width="104" height="15" rx="4"/><rect class="cls-10" x="2790" y="829" width="84" height="15" rx="4"/><rect class="cls-10" x="2901" y="829" width="84" height="15" rx="4"/><line class="cls-6" x1="1927" y1="807" x2="3338" y2="807"/><rect class="cls-10" x="2556" y="884" width="104" height="15" rx="4"/><rect class="cls-10" x="2790" y="884" width="84" height="15" rx="4"/><rect class="cls-10" x="2901" y="884" width="84" height="15" rx="4"/><line class="cls-6" x1="1927" y1="862" x2="3338" y2="862"/><rect class="cls-10" x="2556" y="939" width="104" height="15" rx="4"/><rect class="cls-10" x="2790" y="939" width="84" height="15" rx="4"/><rect class="cls-10" x="2901" y="939" width="84" height="15" rx="4"/><line class="cls-6" x1="1927" y1="917" x2="3338" y2="917"/><rect class="cls-10" x="2556" y="994" width="104" height="15" rx="4"/><rect class="cls-10" x="2790" y="994" width="84" height="15" rx="4"/><rect class="cls-10" x="2901" y="994" width="84" height="15" rx="4"/><line class="cls-6" x1="1927" y1="972" x2="3338" y2="972"/><rect class="cls-10" x="2556" y="1049" width="104" height="15" rx="4"/><rect class="cls-10" x="2790" y="1049" width="84" height="15" rx="4"/><rect class="cls-10" x="2901" y="1049" width="84" height="15" rx="4"/><line class="cls-6" x1="1927" y1="1027" x2="3338" y2="1027"/><rect class="cls-10" x="2556" y="1104" width="104" height="15" rx="4"/><rect class="cls-10" x="2790" y="1104" width="84" height="15" rx="4"/><rect class="cls-10" x="2901" y="1104" width="84" height="15" rx="4"/><line class="cls-6" x1="1927" y1="1082" x2="3338" y2="1082"/><rect class="cls-10" x="2556" y="1159" width="104" height="15" rx="4"/><rect class="cls-10" x="2790" y="1159" width="84" height="15" rx="4"/><rect class="cls-10" x="2901" y="1159" width="84" height="15" rx="4"/><line class="cls-6" x1="1927" y1="1137" x2="3338" y2="1137"/><rect class="cls-10" x="2556" y="1214" width="104" height="15" rx="4"/><rect class="cls-10" x="2790" y="1214" width="84" height="15" rx="4"/><rect class="cls-10" x="2901" y="1214" width="84" height="15" rx="4"/><line class="cls-6" x1="1927" y1="1192" x2="3338" y2="1192"/><rect class="cls-10" x="2556" y="1269" width="104" height="15" rx="4"/><rect class="cls-10" x="2790" y="1269" width="84" height="15" rx="4"/><rect class="cls-10" x="2901" y="1269" width="84" height="15" rx="4"/><line class="cls-6" x1="1927" y1="1247" x2="3338" y2="1247"/><rect class="cls-10" x="2556" y="1324" width="104" height="15" rx="4"/><rect class="cls-10" x="2790" y="1324" width="84" height="15" rx="4"/><rect class="cls-10" x="2901" y="1324" width="84" height="15" rx="4"/><line class="cls-6" x1="1927" y1="1302" x2="3338" y2="1302"/><polygon class="cls-12" points="3084 240 1160.83 240 1150.5 230.5 1139.41 240 40 240 40 184 3084 184 3084 240"/><circle class="cls-10" cx="78.5" cy="211.5" r="12"/><circle class="cls-13" cx="793" cy="212" r="18"/></svg>