<?xml version="1.0" encoding="utf-8"?>
<!-- Generator: Adobe Illustrator 24.3.0, SVG Export Plug-In . SVG Version: 6.00 Build 0)  -->
<svg version="1.1" id="Layer_1" xmlns="http://www.w3.org/2000/svg" xmlns:xlink="http://www.w3.org/1999/xlink" x="0px" y="0px"
	 viewBox="0 0 24 24" style="enable-background:new 0 0 24 24;" xml:space="preserve">
<style type="text/css">
	.st0{fill:#E6E6E6;}
</style>
<path class="st0" d="M20,1.5h-9.7C8.9,1.5,7.8,2.6,7.8,4v3.5H4.1c-1.4,0-2.6,1.2-2.6,2.6v9.8c0,1.4,1.2,2.6,2.6,2.6h9.8
	c1.4,0,2.5-1.1,2.6-2.6v-3.5H20c1.4,0,2.5-1.1,2.5-2.5V4C22.5,2.6,21.4,1.5,20,1.5z M13.9,7.5H10V4c0-0.1,0.1-0.3,0.3-0.3h0.5l0,0
	H20c0.1,0,0.3,0.2,0.3,0.3v9.9c0,0.1-0.2,0.3-0.3,0.3h-3.5v-4.1C16.5,8.7,15.3,7.5,13.9,7.5z M3.8,10.1C3.8,10,4,9.8,4.1,9.8h3.7
	v4.1c0,1.4,1.1,2.5,2.5,2.5h3.9v3.5c0,0.1-0.2,0.3-0.3,0.3H4.1c-0.1,0-0.3-0.2-0.3-0.3V10.1z"/>
</svg>
