<?xml version="1.0" encoding="utf-8"?>
<!-- Generator: Adobe Illustrator 24.3.0, SVG Export Plug-In . SVG Version: 6.00 Build 0)  -->
<svg version="1.1" id="Layer_1" xmlns="http://www.w3.org/2000/svg" xmlns:xlink="http://www.w3.org/1999/xlink" x="0px" y="0px"
	 viewBox="0 0 24 24" style="enable-background:new 0 0 24 24;" xml:space="preserve">
<style type="text/css">
	.st0{fill-rule:evenodd;clip-rule:evenodd;fill:#E6E6E6;}
</style>
<g id="Navigation-_x2A__x2A_After-Reorg-and-Future-Projects">
	<g id="NLN-Color-Theme-Future" transform="translate(-26.000000, -849.000000)">
		<g id="Section-_x2F_-Workspace" transform="translate(0.000000, 39.000000)">
			<g id="Nav-_x2F_-Level-2" transform="translate(0.000000, 800.000000)">
				<g id="_xD83C__xDF40_-Icon-_x2F_-Patching" transform="translate(23.750000, 8.000000)">
					<g>
						<g id="_xD83C__xDFA8_-Icon-Color">
							<path id="path-2_1_" class="st0" d="M21,12.5v-4c0-0.6-0.5-1-1-1h-4c0-1.7-1.4-3-3-3s-3,1.3-3,3H6c-0.6,0-1,0.4-1,1v5
								c0,0.6,0.4,1,1,1h1c0.5,0,1,0.5,1,1s-0.5,1-1,1H6c-0.6,0-1,0.5-1,1v5c0,0.5,0.4,1,1,1h5c0.6,0,1-0.5,1-1v-1c0-0.5,0.4-1,1-1
								s1,0.5,1,1v1c0,0.5,0.4,1,1,1h5c0.5,0,1-0.5,1-1v-4c1.6,0,3-1.4,3-3S22.6,12.5,21,12.5z M21,16.5h-1c-0.5,0-1,0.5-1,1v4h-3
								c0-1.6-1.4-3-3-3s-3,1.4-3,3H7v-3c1.6,0,3-1.4,3-3s-1.4-3-3-3v-3h4c0.6,0,1-0.4,1-1v-1c0-0.5,0.5-1,1-1s1,0.5,1,1v1
								c0,0.6,0.4,1,1,1h4v4c0,0.6,0.5,1,1,1h1c0.5,0,1,0.5,1,1S21.5,16.5,21,16.5z"/>
						</g>
					</g>
				</g>
			</g>
		</g>
	</g>
</g>
</svg>
