<?xml version="1.0" encoding="utf-8"?>
<!-- Generator: Adobe Illustrator 24.3.0, SVG Export Plug-In . SVG Version: 6.00 Build 0)  -->
<svg version="1.1" id="Layer_1" xmlns="http://www.w3.org/2000/svg" xmlns:xlink="http://www.w3.org/1999/xlink" x="0px" y="0px"
	 viewBox="0 0 24 24" style="enable-background:new 0 0 24 24;" xml:space="preserve">
<style type="text/css">
	.st0{fill:#E6E6E6;}
	.st1{fill:none;}
</style>
<g id="Navigation-_x2A__x2A_After-Reorg-and-Future-Projects">
	<g id="NLN-Color-Theme-Future" transform="translate(-25.000000, -970.000000)">
		<g id="Section-_x2F_-Settings" transform="translate(0.000000, 878.500000)">
			<g id="Nav-_x2F_-Exp-Button-_x2F_-Level-2-Copy-52" transform="translate(0.000000, 81.000000)">
				<g id="_xD83C__xDF40_-Icon-_x2F_-Policies" transform="translate(23.750000, 8.000000)">
					<g>
						<g id="Mask">
							<path id="path-2_1_" class="st0" d="M7.2,11.5c0-0.6,0.4-1,1-1h10c0.5,0,1,0.4,1,1s-0.5,1-1,1h-10
								C7.7,12.5,7.2,12.1,7.2,11.5z M8.2,16.5h10c0.5,0,1-0.4,1-1s-0.5-1-1-1h-10c-0.6,0-1,0.4-1,1S7.7,16.5,8.2,16.5z M23.2,6.5
								v14c0,0.5-0.5,1-1,1l0,0h-8v1h1.5c0.5,0,1,0.5,1,1s-0.5,1-1,1h-5c-0.6,0-1-0.5-1-1s0.4-1,1-1h1.5v-1h-8c-0.5,0-1-0.5-1-1v-14
								c0-0.6,0.5-1,1-1h18C22.8,5.5,23.2,5.9,23.2,6.5z M21.2,7.5h-16v12h16V7.5z"/>
						</g>
						<g id="Group">
							<g id="Rectangle">
								<rect x="1.2" y="2.5" class="st1" width="24" height="24"/>
							</g>
						</g>
					</g>
				</g>
			</g>
		</g>
	</g>
</g>
</svg>
